<?xml version="1.0" standalone="yes"?>

<svg version="1.1" viewBox="0.0 0.0 1280.0 960.0" fill="none" stroke="none" stroke-linecap="square" stroke-miterlimit="10" xmlns="http://www.w3.org/2000/svg" xmlns:xlink="http://www.w3.org/1999/xlink"><clipPath id="p.0"><path d="m0 0l1280.0 0l0 960.0l-1280.0 0l0 -960.0z" clip-rule="nonzero"></path></clipPath><g clip-path="url(#p.0)"><path fill="#000000" fill-opacity="0.0" d="m0 0l1280.0 0l0 960.0l-1280.0 0z" fill-rule="nonzero"></path><path fill="#f3f3f3" d="m396.0 58.9964l280.99573 0l0 258.0036l-280.99573 0z" fill-rule="nonzero"></path><path fill="#c2c2c2" d="m676.9957 58.9964l9.996399 -9.996399l0 258.0036l-9.996399 9.996399z" fill-rule="nonzero"></path><path fill="#f5f5f5" d="m396.0 58.9964l9.996399 -9.996399l280.99573 0l-9.996399 9.996399z" fill-rule="nonzero"></path><path fill="#000000" fill-opacity="0.0" d="m396.0 58.9964l9.996399 -9.996399l280.99573 0l0 258.0036l-9.996399 9.996399l-280.99573 0zm0 0l280.99573 0l9.996399 -9.996399m-9.996399 9.996399l0 258.0036" fill-rule="nonzero"></path><path stroke="#000000" stroke-width="2.0" stroke-linejoin="round" stroke-linecap="butt" d="m396.0 58.9964l9.996399 -9.996399l280.99573 0l0 258.0036l-9.996399 9.996399l-280.99573 0zm0 0l280.99573 0l9.996399 -9.996399m-9.996399 9.996399l0 258.0036" fill-rule="nonzero"></path><path fill="#000000" fill-opacity="0.0" d="m504.0 66.0l74.99213 0l0 25.984253l-74.99213 0z" fill-rule="nonzero"></path><path fill="#000000" d="m515.1681 83.7375l0 -1.078125l6.15625 -2.59375l0 1.125l-4.890625 2.015625l4.890625 2.015625l0 1.140625l-6.15625 -2.625zm12.299011 4.0625l0 -0.84375q-0.640625 1.0 -1.890625 1.0q-0.796875 0 -1.484375 -0.4375q-0.671875 -0.453125 -1.046875 -1.25q-0.375 -0.796875 -0.375 -1.828125q0 -1.015625 0.34375 -1.828125q0.34375 -0.828125 1.015625 -1.265625q0.671875 -0.4375 1.5 -0.4375q0.609375 0 1.078125 0.265625q0.484375 0.25 0.78125 0.65625l0 -3.34375l1.140625 0l0 9.3125l-1.0625 0zm-3.609375 -3.359375q0 1.296875 0.53125 1.9375q0.546875 0.640625 1.296875 0.640625q0.75 0 1.265625 -0.609375q0.53125 -0.625 0.53125 -1.875q0 -1.390625 -0.53125 -2.03125q-0.53125 -0.65625 -1.3125 -0.65625q-0.765625 0 -1.28125 0.625q-0.5 0.625 -0.5 1.96875zm11.256226 1.1875l1.1875 0.140625q-0.28125 1.046875 -1.046875 1.625q-0.75 0.5625 -1.921875 0.5625q-1.484375 0 -2.359375 -0.90625q-0.859375 -0.921875 -0.859375 -2.5625q0 -1.703125 0.875 -2.640625q0.890625 -0.9375 2.28125 -0.9375q1.359375 0 2.203125 0.921875q0.859375 0.921875 0.859375 2.578125q0 0.109375 0 0.3125l-5.03125 0q0.0625 1.109375 0.625 1.703125q0.5625 0.59375 1.40625 0.59375q0.640625 0 1.078125 -0.328125q0.453125 -0.34375 0.703125 -1.0625zm-3.75 -1.84375l3.765625 0q-0.078125 -0.859375 -0.4375 -1.28125q-0.546875 -0.65625 -1.40625 -0.65625q-0.796875 0 -1.328125 0.53125q-0.53125 0.515625 -0.59375 1.40625zm8.428101 4.015625l-2.5625 -6.734375l1.203125 0l1.4375 4.03125q0.234375 0.65625 0.4375 1.359375q0.15625 -0.53125 0.421875 -1.28125l1.5 -4.109375l1.171875 0l-2.546875 6.734375l-1.0625 0zm4.7890625 -7.984375l0 -1.328125l1.140625 0l0 1.328125l-1.140625 0zm0 7.984375l0 -6.734375l1.140625 0l0 6.734375l-1.140625 0zm7.3517456 -2.46875l1.125 0.140625q-0.171875 1.171875 -0.9375 1.828125q-0.765625 0.65625 -1.859375 0.65625q-1.390625 0 -2.234375 -0.90625q-0.828125 -0.90625 -0.828125 -2.59375q0 -1.09375 0.359375 -1.90625q0.359375 -0.828125 1.09375 -1.234375q0.734375 -0.40625 1.609375 -0.40625q1.09375 0 1.796875 0.5625q0.703125 0.546875 0.890625 1.5625l-1.109375 0.171875q-0.15625 -0.671875 -0.5625 -1.015625q-0.390625 -0.34375 -0.96875 -0.34375q-0.859375 0 -1.40625 0.625q-0.53125 0.609375 -0.53125 1.953125q0 1.359375 0.515625 1.984375q0.515625 0.609375 1.359375 0.609375q0.671875 0 1.125 -0.40625q0.453125 -0.421875 0.5625 -1.28125zm6.8828125 0.296875l1.1875 0.140625q-0.28125 1.046875 -1.046875 1.625q-0.75 0.5625 -1.921875 0.5625q-1.484375 0 -2.359375 -0.90625q-0.859375 -0.921875 -0.859375 -2.5625q0 -1.703125 0.875 -2.640625q0.890625 -0.9375 2.28125 -0.9375q1.359375 0 2.203125 0.921875q0.859375 0.921875 0.859375 2.578125q0 0.109375 0 0.3125l-5.03125 0q0.0625 1.109375 0.625 1.703125q0.5625 0.59375 1.40625 0.59375q0.640625 0 1.078125 -0.328125q0.453125 -0.34375 0.703125 -1.0625zm-3.75 -1.84375l3.765625 0q-0.078125 -0.859375 -0.4375 -1.28125q-0.546875 -0.65625 -1.40625 -0.65625q-0.796875 0 -1.328125 0.53125q-0.53125 0.515625 -0.59375 1.40625zm12.568726 -0.046875l-6.15625 2.625l0 -1.140625l4.875 -2.015625l-4.875 -2.015625l0 -1.125l6.15625 2.59375l0 1.078125z" fill-rule="nonzero"></path><path fill="#000000" fill-opacity="0.0" d="m474.50394 91.98425l133.98422 0l0 33.007874l-133.98422 0z" fill-rule="nonzero"></path><path fill="#000000" d="m495.37393 108.83112l0 -1.78125l1.78125 0l0 1.78125l-1.78125 0zm0 4.953125l0 -1.78125l1.78125 0l0 1.78125l-1.78125 0zm4.1102295 0l0 -9.3125l3.015625 0q1.703125 0 2.234375 0.140625q0.796875 0.21875 1.328125 0.921875q0.546875 0.703125 0.546875 1.8125q0 0.84375 -0.3125 1.4375q-0.3125 0.578125 -0.796875 0.921875q-0.46875 0.328125 -0.96875 0.4375q-0.671875 0.125 -1.953125 0.125l-1.21875 0l0 3.515625l-1.875 0zm1.875 -7.734375l0 2.640625l1.03125 0q1.109375 0 1.484375 -0.140625q0.375 -0.15625 0.578125 -0.453125q0.21875 -0.3125 0.21875 -0.734375q0 -0.5 -0.296875 -0.828125q-0.296875 -0.328125 -0.765625 -0.421875q-0.328125 -0.0625 -1.34375 -0.0625l-0.90625 0zm11.436615 7.734375l0 -1.015625q-0.375 0.546875 -0.9843445 0.859375q-0.59375 0.3125 -1.25 0.3125q-0.6875 0 -1.234375 -0.296875q-0.53125 -0.296875 -0.78125 -0.84375q-0.234375 -0.546875 -0.234375 -1.484375l0 -4.265625l1.78125 0l0 3.09375q0 1.421875 0.09375 1.75q0.109375 0.3125 0.359375 0.5q0.265625 0.1875 0.671875 0.1875q0.453125 0 0.8124695 -0.25q0.375 -0.25 0.5 -0.625q0.140625 -0.375 0.140625 -1.8125l0 -2.84375l1.78125 0l0 6.734375l-1.65625 0zm3.6413574 -6.734375l1.671875 0l0 0.984375q0.328125 -0.515625 0.875 -0.828125q0.546875 -0.3125 1.21875 -0.3125q1.1875 0 2.0 0.921875q0.8125 0.921875 0.8125 2.5625q0 1.6875 -0.828125 2.625q-0.8125 0.9375 -1.984375 0.9375q-0.5625 0 -1.015625 -0.21875q-0.453125 -0.234375 -0.953125 -0.765625l0 3.390625l-1.796875 0l0 -9.296875zm1.765625 3.25q0 1.140625 0.453125 1.6875q0.453125 0.53125 1.109375 0.53125q0.609375 0 1.015625 -0.5q0.421875 -0.5 0.421875 -1.625q0 -1.0625 -0.421875 -1.578125q-0.421875 -0.515625 -1.046875 -0.515625q-0.65625 0 -1.09375 0.515625q-0.4375 0.5 -0.4375 1.484375zm6.3757324 -3.25l1.671875 0l0 0.984375q0.328125 -0.515625 0.875 -0.828125q0.546875 -0.3125 1.21875 -0.3125q1.1875 0 2.0 0.921875q0.8125 0.921875 0.8125 2.5625q0 1.6875 -0.828125 2.625q-0.8125 0.9375 -1.984375 0.9375q-0.5625 0 -1.015625 -0.21875q-0.453125 -0.234375 -0.953125 -0.765625l0 3.390625l-1.796875 0l0 -9.296875zm1.765625 3.25q0 1.140625 0.453125 1.6875q0.453125 0.53125 1.109375 0.53125q0.609375 0 1.015625 -0.5q0.421875 -0.5 0.421875 -1.625q0 -1.0625 -0.421875 -1.578125q-0.421875 -0.515625 -1.046875 -0.515625q-0.65625 0 -1.09375 0.515625q-0.4375 0.5 -0.4375 1.484375zm10.344482 1.34375l1.765625 0.296875q-0.34375 0.96875 -1.078125 1.484375q-0.734375 0.515625 -1.84375 0.515625q-1.765625 0 -2.609375 -1.15625q-0.671875 -0.921875 -0.671875 -2.3125q0 -1.6875 0.875 -2.625q0.890625 -0.953125 2.21875 -0.953125q1.515625 0 2.375 1.0q0.875 0.984375 0.828125 3.03125l-4.46875 0q0.03125 0.796875 0.4375 1.234375q0.40625 0.4375 1.03125 0.4375q0.421875 0 0.703125 -0.21875q0.28125 -0.234375 0.4375 -0.734375zm0.09375 -1.8125q-0.015625 -0.765625 -0.40625 -1.171875q-0.375 -0.40625 -0.921875 -0.40625q-0.578125 0 -0.96875 0.421875q-0.375 0.4375 -0.375 1.15625l2.671875 0zm6.5062256 -2.78125l0 1.421875l-1.21875 0l0 2.703125q0 0.828125 0.03125 0.96875q0.03125 0.140625 0.15625 0.234375q0.125 0.078125 0.296875 0.078125q0.25 0 0.71875 -0.171875l0.15625 1.390625q-0.625 0.265625 -1.40625 0.265625q-0.484375 0 -0.875 -0.15625q-0.390625 -0.171875 -0.578125 -0.421875q-0.171875 -0.265625 -0.234375 -0.703125q-0.0625 -0.3125 -0.0625 -1.25l0 -2.9375l-0.8125 0l0 -1.421875l0.8125 0l0 -1.34375l1.796875 -1.046875l0 2.390625l1.21875 0zm4.5788574 3.703125l1.828125 -0.171875q0.171875 0.921875 0.671875 1.359375q0.5 0.421875 1.359375 0.421875q0.90625 0 1.359375 -0.375q0.46875 -0.390625 0.46875 -0.90625q0 -0.328125 -0.203125 -0.5625q-0.1875 -0.234375 -0.671875 -0.40625q-0.328125 -0.109375 -1.5 -0.40625q-1.515625 -0.375 -2.125 -0.921875q-0.84375 -0.765625 -0.84375 -1.875q0 -0.703125 0.390625 -1.3125q0.40625 -0.625 1.15625 -0.953125q0.765625 -0.328125 1.84375 -0.328125q1.75 0 2.625 0.78125q0.890625 0.765625 0.9375 2.046875l-1.875 0.078125q-0.125 -0.71875 -0.515625 -1.03125q-0.390625 -0.3125 -1.1875 -0.3125q-0.828125 0 -1.28125 0.328125q-0.296875 0.21875 -0.296875 0.578125q0 0.328125 0.265625 0.5625q0.359375 0.3125 1.734375 0.640625q1.375 0.3125 2.03125 0.65625q0.65625 0.34375 1.015625 0.953125q0.375 0.59375 0.375 1.484375q0 0.796875 -0.453125 1.5q-0.4375 0.6875 -1.25 1.03125q-0.8125 0.34375 -2.015625 0.34375q-1.765625 0 -2.71875 -0.8125q-0.9375 -0.828125 -1.125 -2.390625zm13.2647705 0.890625l1.765625 0.296875q-0.34375 0.96875 -1.078125 1.484375q-0.734375 0.515625 -1.84375 0.515625q-1.765625 0 -2.609375 -1.15625q-0.671875 -0.921875 -0.671875 -2.3125q0 -1.6875 0.875 -2.625q0.890625 -0.953125 2.21875 -0.953125q1.515625 0 2.375 1.0q0.875 0.984375 0.828125 3.03125l-4.46875 0q0.03125 0.796875 0.4375 1.234375q0.40625 0.4375 1.03125 0.4375q0.421875 0 0.703125 -0.21875q0.28125 -0.234375 0.4375 -0.734375zm0.09375 -1.8125q-0.015625 -0.765625 -0.40625 -1.171875q-0.375 -0.40625 -0.921875 -0.40625q-0.578125 0 -0.96875 0.421875q-0.375 0.4375 -0.375 1.15625l2.671875 0zm5.1156006 3.953125l-1.78125 0l0 -6.734375l1.65625 0l0 0.953125q0.421875 -0.6875 0.765625 -0.890625q0.34375 -0.21875 0.765625 -0.21875q0.609375 0 1.171875 0.328125l-0.546875 1.5625q-0.453125 -0.296875 -0.84375 -0.296875q-0.375 0 -0.640625 0.21875q-0.25 0.203125 -0.40625 0.75q-0.140625 0.53125 -0.140625 2.25l0 2.078125zm5.3273926 0l-2.71875 -6.734375l1.875 0l1.28125 3.4375l0.359375 1.140625q0.140625 -0.4375 0.1875 -0.578125q0.09375 -0.28125 0.1875 -0.5625l1.28125 -3.4375l1.84375 0l-2.6875 6.734375l-1.609375 0zm9.474976 -2.140625l1.765625 0.296875q-0.34375 0.96875 -1.078125 1.484375q-0.734375 0.515625 -1.84375 0.515625q-1.765625 0 -2.609375 -1.15625q-0.671875 -0.921875 -0.671875 -2.3125q0 -1.6875 0.875 -2.625q0.890625 -0.953125 2.21875 -0.953125q1.515625 0 2.375 1.0q0.875 0.984375 0.828125 3.03125l-4.46875 0q0.03125 0.796875 0.4375 1.234375q0.40625 0.4375 1.03125 0.4375q0.421875 0 0.703125 -0.21875q0.28125 -0.234375 0.4375 -0.734375zm0.09375 -1.8125q-0.015625 -0.765625 -0.40625 -1.171875q-0.375 -0.40625 -0.921875 -0.40625q-0.578125 0 -0.96875 0.421875q-0.375 0.4375 -0.375 1.15625l2.671875 0zm5.1156006 3.953125l-1.78125 0l0 -6.734375l1.65625 0l0 0.953125q0.421875 -0.6875 0.765625 -0.890625q0.34375 -0.21875 0.765625 -0.21875q0.609375 0 1.171875 0.328125l-0.546875 1.5625q-0.453125 -0.296875 -0.84375 -0.296875q-0.375 0 -0.640625 0.21875q-0.25 0.203125 -0.40625 0.75q-0.140625 0.53125 -0.140625 2.25l0 2.078125z" fill-rule="nonzero"></path><path stroke="#000000" stroke-width="1.3997395038604736" stroke-linecap="butt" d="m494.09268 115.197014l94.80679 0" fill-rule="nonzero"></path><path fill="#f3f3f3" d="m423.0 138.03531l230.96466 0l0 155.97256l-230.96466 0z" fill-rule="nonzero"></path><path fill="#c2c2c2" d="m653.96466 138.03531l6.043213 -6.0431824l0 155.97256l-6.043213 6.0431824z" fill-rule="nonzero"></path><path fill="#f5f5f5" d="m423.0 138.03531l6.0431824 -6.0431824l230.96469 0l-6.043213 6.0431824z" fill-rule="nonzero"></path><path fill="#000000" fill-opacity="0.0" d="m423.0 138.03531l6.0431824 -6.0431824l230.96469 0l0 155.97256l-6.043213 6.0431824l-230.96466 0zm0 0l230.96466 0l6.043213 -6.0431824m-6.043213 6.0431824l0 155.97256" fill-rule="nonzero"></path><path stroke="#000000" stroke-width="2.0" stroke-linejoin="round" stroke-linecap="butt" d="m423.0 138.03531l6.0431824 -6.0431824l230.96469 0l0 155.97256l-6.043213 6.0431824l-230.96466 0zm0 0l230.96466 0l6.043213 -6.0431824m-6.043213 6.0431824l0 155.97256" fill-rule="nonzero"></path><path fill="#000000" fill-opacity="0.0" d="m446.94565 143.81787l189.10239 0l0 41.133865l-189.10239 0z" fill-rule="nonzero"></path><path fill="#000000" d="m492.42337 160.66475l0 -1.78125l1.78125 0l0 1.78125l-1.78125 0zm0 4.953125l0 -1.78125l1.78125 0l0 1.78125l-1.78125 0zm4.032135 -6.734375l1.671875 0l0 0.984375q0.328125 -0.515625 0.875 -0.828125q0.546875 -0.3125 1.21875 -0.3125q1.1875 0 2.0 0.921875q0.8125 0.921875 0.8125 2.5625q0 1.6875 -0.828125 2.625q-0.8125 0.9375 -1.984375 0.9375q-0.5625 0 -1.015625 -0.21875q-0.453125 -0.234375 -0.953125 -0.765625l0 3.390625l-1.796875 0l0 -9.296875zm1.765625 3.25q0 1.140625 0.453125 1.6875q0.453125 0.53125 1.109375 0.53125q0.609375 0 1.015625 -0.5q0.421875 -0.5 0.421875 -1.625q0 -1.0625 -0.421875 -1.578125q-0.421875 -0.515625 -1.046875 -0.515625q-0.65625 0 -1.09375 0.515625q-0.4375 0.5 -0.4375 1.484375zm10.875732 3.484375l0 -1.015625q-0.375 0.546875 -0.984375 0.859375q-0.59375 0.3125 -1.25 0.3125q-0.6875 0 -1.234375 -0.296875q-0.53125 -0.296875 -0.78125 -0.84375q-0.234375 -0.546875 -0.234375 -1.484375l0 -4.265625l1.78125 0l0 3.09375q0 1.421875 0.09375 1.75q0.109375 0.3125 0.359375 0.5q0.265625 0.1875 0.671875 0.1875q0.453125 0 0.8125 -0.25q0.375 -0.25 0.5 -0.625q0.140625 -0.375 0.140625 -1.8125l0 -2.84375l1.78125 0l0 6.734375l-1.65625 0zm3.6413574 -6.734375l1.671875 0l0 0.984375q0.328125 -0.515625 0.875 -0.828125q0.546875 -0.3125 1.21875 -0.3125q1.1875 0 2.0 0.921875q0.8125 0.921875 0.8125 2.5625q0 1.6875 -0.828125 2.625q-0.8125 0.9375 -1.984375 0.9375q-0.5625 0 -1.015625 -0.21875q-0.453125 -0.234375 -0.953125 -0.765625l0 3.390625l-1.796875 0l0 -9.296875zm1.765625 3.25q0 1.140625 0.453125 1.6875q0.453125 0.53125 1.109375 0.53125q0.609375 0 1.015625 -0.5q0.421875 -0.5 0.421875 -1.625q0 -1.0625 -0.421875 -1.578125q-0.421875 -0.515625 -1.046875 -0.515625q-0.65625 0 -1.09375 0.515625q-0.4375 0.5 -0.4375 1.484375zm6.3757324 -3.25l1.671875 0l0 0.984375q0.328125 -0.515625 0.875 -0.828125q0.546875 -0.3125 1.21875 -0.3125q1.1875 0 2.0 0.921875q0.8125 0.921875 0.8125 2.5625q0 1.6875 -0.828125 2.625q-0.8125 0.9375 -1.984375 0.9375q-0.5625 0 -1.015625 -0.21875q-0.453125 -0.234375 -0.953125 -0.765625l0 3.390625l-1.796875 0l0 -9.296875zm1.765625 3.25q0 1.140625 0.453125 1.6875q0.453125 0.53125 1.109375 0.53125q0.609375 0 1.015625 -0.5q0.421875 -0.5 0.421875 -1.625q0 -1.0625 -0.421875 -1.578125q-0.421875 -0.515625 -1.046875 -0.515625q-0.65625 0 -1.09375 0.515625q-0.4375 0.5 -0.4375 1.484375zm10.344482 1.34375l1.765625 0.296875q-0.34375 0.96875 -1.078125 1.484375q-0.734375 0.515625 -1.84375 0.515625q-1.765625 0 -2.609375 -1.15625q-0.671875 -0.921875 -0.671875 -2.3125q0 -1.6875 0.875 -2.625q0.890625 -0.953125 2.21875 -0.953125q1.515625 0 2.375 1.0q0.875 0.984375 0.828125 3.03125l-4.46875 0q0.03125 0.796875 0.4375 1.234375q0.40625 0.4375 1.03125 0.4375q0.421875 0 0.703125 -0.21875q0.28125 -0.234375 0.4375 -0.734375zm0.09375 -1.8125q-0.015625 -0.765625 -0.40625 -1.171875q-0.375 -0.40625 -0.921875 -0.40625q-0.578125 0 -0.96875 0.421875q-0.375 0.4375 -0.375 1.15625l2.671875 0zm6.5062256 -2.78125l0 1.421875l-1.21875 0l0 2.703125q0 0.828125 0.03125 0.96875q0.03125 0.140625 0.15625 0.234375q0.125 0.078125 0.296875 0.078125q0.25 0 0.71875 -0.171875l0.15625 1.390625q-0.625 0.265625 -1.40625 0.265625q-0.484375 0 -0.875 -0.15625q-0.390625 -0.171875 -0.578125 -0.421875q-0.171875 -0.265625 -0.234375 -0.703125q-0.0625 -0.3125 -0.0625 -1.25l0 -2.9375l-0.8125 0l0 -1.421875l0.8125 0l0 -1.34375l1.796875 -1.046875l0 2.390625l1.21875 0zm1.2039795 0l1.640625 0l0 0.90625q0.890625 -1.0625 2.109375 -1.0625q0.640625 0 1.109375 0.265625q0.484375 0.265625 0.796875 0.796875q0.4375 -0.53125 0.953125 -0.796875q0.515625 -0.265625 1.09375 -0.265625q0.75 0 1.265625 0.296875q0.515625 0.296875 0.765625 0.890625q0.1875 0.421875 0.1875 1.390625l0 4.3125l-1.78125 0l0 -3.859375q0 -1.0 -0.1875 -1.28125q-0.25 -0.390625 -0.765625 -0.390625q-0.375 0 -0.703125 0.234375q-0.328125 0.21875 -0.484375 0.671875q-0.140625 0.4375 -0.140625 1.390625l0 3.234375l-1.78125 0l0 -3.6875q0 -0.984375 -0.09375 -1.265625q-0.09375 -0.296875 -0.296875 -0.4375q-0.203125 -0.140625 -0.546875 -0.140625q-0.40625 0 -0.734375 0.234375q-0.328125 0.21875 -0.484375 0.640625q-0.140625 0.40625 -0.140625 1.375l0 3.28125l-1.78125 0l0 -6.734375zm13.31958 2.046875l-1.625 -0.296875q0.28125 -0.96875 0.9375 -1.4375q0.671875 -0.46875 1.984375 -0.46875q1.203125 0 1.78125 0.28125q0.578125 0.28125 0.8125 0.71875q0.25 0.4375 0.25 1.59375l-0.015625 2.078125q0 0.890625 0.078125 1.3125q0.09375 0.421875 0.328125 0.90625l-1.765625 0q-0.078125 -0.171875 -0.171875 -0.53125q-0.046875 -0.15625 -0.0625 -0.203125q-0.46875 0.4375 -0.984375 0.671875q-0.515625 0.21875 -1.109375 0.21875q-1.046875 0 -1.640625 -0.5625q-0.59375 -0.578125 -0.59375 -1.4375q0 -0.5625 0.265625 -1.015625q0.28125 -0.453125 0.765625 -0.6875q0.5 -0.234375 1.421875 -0.421875q1.25 -0.234375 1.734375 -0.4375l0 -0.171875q0 -0.515625 -0.265625 -0.734375q-0.25 -0.21875 -0.953125 -0.21875q-0.46875 0 -0.734375 0.1875q-0.265625 0.1875 -0.4375 0.65625zm2.390625 1.453125q-0.34375 0.109375 -1.09375 0.265625q-0.734375 0.15625 -0.96875 0.3125q-0.34375 0.25 -0.34375 0.625q0 0.375 0.28125 0.65625q0.28125 0.265625 0.703125 0.265625q0.484375 0 0.921875 -0.3125q0.328125 -0.234375 0.421875 -0.59375q0.078125 -0.21875 0.078125 -0.859375l0 -0.359375zm3.0687256 1.3125l1.78125 -0.28125q0.109375 0.53125 0.453125 0.796875q0.359375 0.265625 0.984375 0.265625q0.703125 0 1.046875 -0.25q0.234375 -0.171875 0.234375 -0.46875q0 -0.203125 -0.125 -0.34375q-0.140625 -0.125 -0.59375 -0.234375q-2.15625 -0.46875 -2.734375 -0.875q-0.8125 -0.546875 -0.8125 -1.515625q0 -0.875 0.6875 -1.46875q0.703125 -0.59375 2.15625 -0.59375q1.390625 0 2.0625 0.453125q0.671875 0.4375 0.921875 1.328125l-1.6875 0.3125q-0.109375 -0.390625 -0.40625 -0.59375q-0.296875 -0.21875 -0.859375 -0.21875q-0.703125 0 -1.015625 0.1875q-0.203125 0.140625 -0.203125 0.375q0 0.1875 0.1875 0.3125q0.234375 0.1875 1.65625 0.515625q1.4375 0.3125 2.0 0.78125q0.5625 0.484375 0.5625 1.328125q0 0.921875 -0.78125 1.59375q-0.78125 0.671875 -2.296875 0.671875q-1.375 0 -2.1875 -0.5625q-0.796875 -0.5625 -1.03125 -1.515625zm11.131226 -4.8125l0 1.421875l-1.21875 0l0 2.703125q0 0.828125 0.03125 0.96875q0.03125 0.140625 0.15625 0.234375q0.125 0.078125 0.296875 0.078125q0.25 0 0.71875 -0.171875l0.15625 1.390625q-0.625 0.265625 -1.40625 0.265625q-0.484375 0 -0.875 -0.15625q-0.390625 -0.171875 -0.578125 -0.421875q-0.171875 -0.265625 -0.234375 -0.703125q-0.0625 -0.3125 -0.0625 -1.25l0 -2.9375l-0.8125 0l0 -1.421875l0.8125 0l0 -1.34375l1.796875 -1.046875l0 2.390625l1.21875 0zm5.2509155 4.59375l1.765625 0.296875q-0.34375 0.96875 -1.078125 1.484375q-0.734375 0.515625 -1.84375 0.515625q-1.765625 0 -2.609375 -1.15625q-0.671875 -0.921875 -0.671875 -2.3125q0 -1.6875 0.875 -2.625q0.890625 -0.953125 2.21875 -0.953125q1.515625 0 2.375 1.0q0.875 0.984375 0.828125 3.03125l-4.46875 0q0.03125 0.796875 0.4375 1.234375q0.40625 0.4375 1.03125 0.4375q0.421875 0 0.703125 -0.21875q0.28125 -0.234375 0.4375 -0.734375zm0.09375 -1.8125q-0.015625 -0.765625 -0.40625 -1.171875q-0.375 -0.40625 -0.921875 -0.40625q-0.578125 0 -0.96875 0.421875q-0.375 0.4375 -0.375 1.15625l2.671875 0zm5.1156006 3.953125l-1.78125 0l0 -6.734375l1.65625 0l0 0.953125q0.421875 -0.6875 0.765625 -0.890625q0.34375 -0.21875 0.765625 -0.21875q0.609375 0 1.171875 0.328125l-0.546875 1.5625q-0.453125 -0.296875 -0.84375 -0.296875q-0.375 0 -0.640625 0.21875q-0.25 0.203125 -0.40625 0.75q-0.140625 0.53125 -0.140625 2.25l0 2.078125zm9.655518 0l-1.65625 0l0 -0.984375q-0.40625 0.578125 -0.96875 0.859375q-0.5625 0.28125 -1.125 0.28125q-1.171875 0 -2.0 -0.9375q-0.828125 -0.9375 -0.828125 -2.609375q0 -1.71875 0.796875 -2.609375q0.8125 -0.890625 2.046875 -0.890625q1.125 0 1.953125 0.9375l0 -3.359375l1.78125 0l0 9.3125zm-4.75 -3.515625q0 1.078125 0.296875 1.5625q0.421875 0.703125 1.203125 0.703125q0.609375 0 1.046875 -0.515625q0.4375 -0.53125 0.4375 -1.578125q0 -1.15625 -0.421875 -1.671875q-0.421875 -0.515625 -1.078125 -0.515625q-0.625 0 -1.0625 0.515625q-0.421875 0.5 -0.421875 1.5z" fill-rule="nonzero"></path><path stroke="#000000" stroke-width="1.3997395038604736" stroke-linecap="butt" d="m491.14212 167.03062l100.70944 0" fill-rule="nonzero"></path><path fill="#f3f3f3" d="m460.0 194.0l162.99213 0l0 73.00787l-162.99213 0z" fill-rule="nonzero"></path><path stroke="#000000" stroke-width="2.0" stroke-linejoin="round" stroke-linecap="butt" d="m460.0 194.0l162.99213 0l0 73.00787l-162.99213 0z" fill-rule="nonzero"></path><path fill="#000000" d="m517.2793 235.30394l0 -9.3125l1.84375 0l2.203125 6.59375q0.3125 0.921875 0.453125 1.375q0.15625 -0.5 0.484375 -1.484375l2.234375 -6.484375l1.65625 0l0 9.3125l-1.1875 0l0 -7.78125l-2.703125 7.78125l-1.109375 0l-2.6875 -7.921875l0 7.921875l-1.1875 0zm15.383728 -0.828125q-0.625 0.53125 -1.21875 0.765625q-0.578125 0.21875 -1.25 0.21875q-1.125 0 -1.71875 -0.546875q-0.59375 -0.546875 -0.59375 -1.390625q0 -0.484375 0.21875 -0.890625q0.234375 -0.421875 0.59375 -0.671875q0.375 -0.25 0.828125 -0.375q0.328125 -0.078125 1.015625 -0.171875q1.375 -0.15625 2.03125 -0.390625q0.015625 -0.234375 0.015625 -0.296875q0 -0.703125 -0.328125 -0.984375q-0.4375 -0.390625 -1.296875 -0.390625q-0.8125 0 -1.203125 0.28125q-0.375 0.28125 -0.5625 1.0l-1.109375 -0.140625q0.140625 -0.71875 0.484375 -1.15625q0.359375 -0.453125 1.015625 -0.6875q0.671875 -0.234375 1.53125 -0.234375q0.875 0 1.40625 0.203125q0.546875 0.203125 0.796875 0.515625q0.25 0.296875 0.359375 0.765625q0.046875 0.296875 0.046875 1.0625l0 1.515625q0 1.59375 0.078125 2.015625q0.078125 0.421875 0.28125 0.8125l-1.1875 0q-0.171875 -0.359375 -0.234375 -0.828125zm-0.09375 -2.5625q-0.625 0.265625 -1.859375 0.4375q-0.703125 0.109375 -1.0 0.234375q-0.296875 0.125 -0.453125 0.375q-0.15625 0.234375 -0.15625 0.53125q0 0.453125 0.34375 0.765625q0.34375 0.296875 1.015625 0.296875q0.65625 0 1.171875 -0.28125q0.515625 -0.296875 0.765625 -0.796875q0.171875 -0.375 0.171875 -1.140625l0 -0.421875zm3.1156006 3.390625l0 -6.734375l1.03125 0l0 0.953125q0.734375 -1.109375 2.140625 -1.109375q0.609375 0 1.109375 0.21875q0.515625 0.21875 0.765625 0.578125q0.265625 0.34375 0.359375 0.84375q0.0625 0.3125 0.0625 1.109375l0 4.140625l-1.140625 0l0 -4.09375q0 -0.703125 -0.140625 -1.046875q-0.125 -0.34375 -0.46875 -0.546875q-0.328125 -0.21875 -0.78125 -0.21875q-0.734375 0 -1.265625 0.46875q-0.53125 0.453125 -0.53125 1.75l0 3.6875l-1.140625 0zm7.4124756 -7.984375l0 -1.328125l1.140625 0l0 1.328125l-1.140625 0zm0 7.984375l0 -6.734375l1.140625 0l0 6.734375l-1.140625 0zm3.2266846 0l0 -5.859375l-1.0 0l0 -0.875l1.0 0l0 -0.71875q0 -0.6875 0.125 -1.015625q0.171875 -0.4375 0.578125 -0.71875q0.421875 -0.28125 1.171875 -0.28125q0.484375 0 1.0625 0.125l-0.171875 0.984375q-0.359375 -0.0625 -0.671875 -0.0625q-0.515625 0 -0.734375 0.234375q-0.21875 0.21875 -0.21875 0.828125l0 0.625l1.3125 0l0 0.875l-1.3125 0l0 5.859375l-1.140625 0zm8.046753 -2.171875l1.1875 0.140625q-0.28125 1.046875 -1.046875 1.625q-0.75 0.5625 -1.921875 0.5625q-1.484375 0 -2.359375 -0.90625q-0.859375 -0.921875 -0.859375 -2.5625q0 -1.703125 0.875 -2.640625q0.890625 -0.9375 2.28125 -0.9375q1.359375 0 2.203125 0.921875q0.859375 0.921875 0.859375 2.578125q0 0.109375 0 0.3125l-5.03125 0q0.0625 1.109375 0.625 1.703125q0.5625 0.59375 1.40625 0.59375q0.640625 0 1.078125 -0.328125q0.453125 -0.34375 0.703125 -1.0625zm-3.75 -1.84375l3.765625 0q-0.078125 -0.859375 -0.4375 -1.28125q-0.546875 -0.65625 -1.40625 -0.65625q-0.796875 0 -1.328125 0.53125q-0.53125 0.515625 -0.59375 1.40625zm6.0999756 2.0l1.125 -0.171875q0.09375 0.671875 0.53125 1.046875q0.4375 0.359375 1.21875 0.359375q0.78125 0 1.15625 -0.3125q0.390625 -0.328125 0.390625 -0.765625q0 -0.390625 -0.34375 -0.609375q-0.234375 -0.15625 -1.171875 -0.390625q-1.25 -0.3125 -1.734375 -0.546875q-0.484375 -0.234375 -0.734375 -0.640625q-0.25 -0.40625 -0.25 -0.90625q0 -0.453125 0.203125 -0.828125q0.203125 -0.390625 0.5625 -0.640625q0.265625 -0.203125 0.71875 -0.328125q0.46875 -0.140625 1.0 -0.140625q0.78125 0 1.375 0.234375q0.609375 0.21875 0.890625 0.609375q0.296875 0.390625 0.40625 1.046875l-1.125 0.15625q-0.078125 -0.53125 -0.4375 -0.8125q-0.359375 -0.296875 -1.03125 -0.296875q-0.78125 0 -1.125 0.265625q-0.34375 0.25 -0.34375 0.609375q0 0.21875 0.140625 0.390625q0.140625 0.1875 0.4375 0.3125q0.171875 0.0625 1.015625 0.28125q1.21875 0.328125 1.6875 0.53125q0.484375 0.203125 0.75 0.609375q0.28125 0.390625 0.28125 0.96875q0 0.578125 -0.34375 1.078125q-0.328125 0.5 -0.953125 0.78125q-0.625 0.28125 -1.421875 0.28125q-1.3125 0 -2.0 -0.546875q-0.6875 -0.546875 -0.875 -1.625zm9.6171875 1.0l0.15625 1.0q-0.484375 0.109375 -0.859375 0.109375q-0.625 0 -0.96875 -0.203125q-0.34375 -0.203125 -0.484375 -0.515625q-0.140625 -0.328125 -0.140625 -1.34375l0 -3.890625l-0.828125 0l0 -0.875l0.828125 0l0 -1.671875l1.140625 -0.6875l0 2.359375l1.15625 0l0 0.875l-1.15625 0l0 3.953125q0 0.484375 0.0625 0.625q0.0625 0.140625 0.1875 0.21875q0.140625 0.078125 0.390625 0.078125q0.203125 0 0.515625 -0.03125z" fill-rule="nonzero"></path><path fill="#f3f3f3" d="m73.0 426.9964l280.99573 0l0 258.0036l-280.99573 0z" fill-rule="nonzero"></path><path fill="#c2c2c2" d="m353.99573 426.9964l9.996399 -9.996399l0 258.0036l-9.996399 9.996399z" fill-rule="nonzero"></path><path fill="#f5f5f5" d="m73.0 426.9964l9.996399 -9.996399l280.99573 0l-9.996399 9.996399z" fill-rule="nonzero"></path><path fill="#000000" fill-opacity="0.0" d="m73.0 426.9964l9.996399 -9.996399l280.99573 0l0 258.0036l-9.996399 9.996399l-280.99573 0zm0 0l280.99573 0l9.996399 -9.996399m-9.996399 9.996399l0 258.0036" fill-rule="nonzero"></path><path stroke="#000000" stroke-width="2.0" stroke-linejoin="round" stroke-linecap="butt" d="m73.0 426.9964l9.996399 -9.996399l280.99573 0l0 258.0036l-9.996399 9.996399l-280.99573 0zm0 0l280.99573 0l9.996399 -9.996399m-9.996399 9.996399l0 258.0036" fill-rule="nonzero"></path><path fill="#000000" fill-opacity="0.0" d="m181.0 434.0l74.99213 0l0 25.984253l-74.99213 0z" fill-rule="nonzero"></path><path fill="#000000" d="m192.16808 451.7375l0 -1.078125l6.15625 -2.59375l0 1.125l-4.890625 2.015625l4.890625 2.015625l0 1.140625l-6.15625 -2.625zm12.299042 4.0625l0 -0.84375q-0.640625 1.0 -1.890625 1.0q-0.796875 0 -1.484375 -0.4375q-0.671875 -0.453125 -1.046875 -1.25q-0.375 -0.796875 -0.375 -1.828125q0 -1.015625 0.34375 -1.828125q0.34375 -0.828125 1.015625 -1.265625q0.671875 -0.4375 1.5 -0.4375q0.609375 0 1.078125 0.265625q0.484375 0.25 0.78125 0.65625l0 -3.34375l1.140625 0l0 9.3125l-1.0625 0zm-3.609375 -3.359375q0 1.296875 0.53125 1.9375q0.546875 0.640625 1.296875 0.640625q0.75 0 1.265625 -0.609375q0.53125 -0.625 0.53125 -1.875q0 -1.390625 -0.53125 -2.03125q-0.53125 -0.65625 -1.3125 -0.65625q-0.765625 0 -1.28125 0.625q-0.5 0.625 -0.5 1.96875zm11.256226 1.1875l1.1875 0.140625q-0.28125 1.046875 -1.046875 1.625q-0.75 0.5625 -1.921875 0.5625q-1.484375 0 -2.359375 -0.90625q-0.859375 -0.921875 -0.859375 -2.5625q0 -1.703125 0.875 -2.640625q0.890625 -0.9375 2.28125 -0.9375q1.359375 0 2.203125 0.921875q0.859375 0.921875 0.859375 2.578125q0 0.109375 0 0.3125l-5.03125 0q0.0625 1.109375 0.625 1.703125q0.5625 0.59375 1.40625 0.59375q0.640625 0 1.078125 -0.328125q0.453125 -0.34375 0.703125 -1.0625zm-3.75 -1.84375l3.765625 0q-0.078125 -0.859375 -0.4375 -1.28125q-0.546875 -0.65625 -1.40625 -0.65625q-0.796875 0 -1.328125 0.53125q-0.53125 0.515625 -0.59375 1.40625zm8.428101 4.015625l-2.5625 -6.734375l1.203125 0l1.4375 4.03125q0.234375 0.65625 0.4375 1.359375q0.15625 -0.53125 0.421875 -1.28125l1.5 -4.109375l1.171875 0l-2.546875 6.734375l-1.0625 0zm4.7890625 -7.984375l0 -1.328125l1.140625 0l0 1.328125l-1.140625 0zm0 7.984375l0 -6.734375l1.140625 0l0 6.734375l-1.140625 0zm7.351715 -2.46875l1.125 0.140625q-0.171875 1.171875 -0.9375 1.828125q-0.765625 0.65625 -1.859375 0.65625q-1.390625 0 -2.234375 -0.90625q-0.828125 -0.90625 -0.828125 -2.59375q0 -1.09375 0.359375 -1.90625q0.359375 -0.828125 1.09375 -1.234375q0.734375 -0.40625 1.609375 -0.40625q1.09375 0 1.796875 0.5625q0.703125 0.546875 0.890625 1.5625l-1.109375 0.171875q-0.15625 -0.671875 -0.5625 -1.015625q-0.390625 -0.34375 -0.96875 -0.34375q-0.859375 0 -1.40625 0.625q-0.53125 0.609375 -0.53125 1.953125q0 1.359375 0.515625 1.984375q0.515625 0.609375 1.359375 0.609375q0.671875 0 1.125 -0.40625q0.453125 -0.421875 0.5625 -1.28125zm6.8828125 0.296875l1.1875 0.140625q-0.28125 1.046875 -1.046875 1.625q-0.75 0.5625 -1.921875 0.5625q-1.484375 0 -2.359375 -0.90625q-0.859375 -0.921875 -0.859375 -2.5625q0 -1.703125 0.875 -2.640625q0.890625 -0.9375 2.28125 -0.9375q1.359375 0 2.203125 0.921875q0.859375 0.921875 0.859375 2.578125q0 0.109375 0 0.3125l-5.03125 0q0.0625 1.109375 0.625 1.703125q0.5625 0.59375 1.40625 0.59375q0.640625 0 1.078125 -0.328125q0.453125 -0.34375 0.703125 -1.0625zm-3.75 -1.84375l3.765625 0q-0.078125 -0.859375 -0.4375 -1.28125q-0.546875 -0.65625 -1.40625 -0.65625q-0.796875 0 -1.328125 0.53125q-0.53125 0.515625 -0.59375 1.40625zm12.568726 -0.046875l-6.15625 2.625l0 -1.140625l4.875 -2.015625l-4.875 -2.015625l0 -1.125l6.15625 2.59375l0 1.078125z" fill-rule="nonzero"></path><path fill="#000000" fill-opacity="0.0" d="m151.50394 459.98425l133.98425 0l0 33.007874l-133.98425 0z" fill-rule="nonzero"></path><path fill="#000000" d="m195.34023 476.83112l0 -1.78125l1.78125 0l0 1.78125l-1.78125 0zm0 4.953125l0 -1.78125l1.78125 0l0 1.78125l-1.78125 0zm4.1258698 0l0 -9.3125l1.828125 0l3.8125 6.21875l0 -6.21875l1.734375 0l0 9.3125l-1.875 0l-3.765625 -6.0625l0 6.0625l-1.734375 0zm9.172028 -3.46875q0 -0.890625 0.4375 -1.71875q0.4375 -0.828125 1.234375 -1.265625q0.8125 -0.4375 1.8125 -0.4375q1.515625 0 2.5 1.0q0.984375 0.984375 0.984375 2.5q0 1.53125 -1.0 2.546875q-0.984375 1.0 -2.484375 1.0q-0.921875 0 -1.765625 -0.421875q-0.84375 -0.421875 -1.28125 -1.21875q-0.4375 -0.8125 -0.4375 -1.984375zm1.828125 0.09375q0 1.0 0.46875 1.546875q0.484375 0.53125 1.1875 0.53125q0.703125 0 1.171875 -0.53125q0.46875 -0.546875 0.46875 -1.5625q0 -0.984375 -0.46875 -1.515625q-0.46875 -0.53125 -1.171875 -0.53125q-0.703125 0 -1.1875 0.53125q-0.46875 0.53125 -0.46875 1.53125zm12.906982 3.375l-1.65625 0l0 -0.984375q-0.40625 0.578125 -0.96875 0.859375q-0.5625 0.28125 -1.125 0.28125q-1.171875 0 -2.0 -0.9375q-0.828125 -0.9375 -0.828125 -2.609375q0 -1.71875 0.796875 -2.609375q0.8125 -0.890625 2.046875 -0.890625q1.125 0 1.953125 0.9375l0 -3.359375l1.78125 0l0 9.3125zm-4.75 -3.515625q0 1.078125 0.296875 1.5625q0.421875 0.703125 1.203125 0.703125q0.609375 0 1.046875 -0.515625q0.4375 -0.53125 0.4375 -1.578125q0 -1.15625 -0.421875 -1.671875q-0.421875 -0.515625 -1.078125 -0.515625q-0.625 0 -1.0625 0.515625q-0.421875 0.5 -0.421875 1.5zm10.625732 1.375l1.765625 0.296875q-0.34375 0.96875 -1.078125 1.484375q-0.734375 0.515625 -1.84375 0.515625q-1.765625 0 -2.609375 -1.15625q-0.671875 -0.921875 -0.671875 -2.3125q0 -1.6875 0.875 -2.625q0.890625 -0.953125 2.21875 -0.953125q1.515625 0 2.375 1.0q0.875 0.984375 0.828125 3.03125l-4.46875 0q0.03125 0.796875 0.4375 1.234375q0.40625 0.4375 1.03125 0.4375q0.421875 0 0.703125 -0.21875q0.28125 -0.234375 0.4375 -0.734375zm0.09375 -1.8125q-0.015625 -0.765625 -0.40625 -1.171875q-0.375 -0.40625 -0.921875 -0.40625q-0.578125 0 -0.96875 0.421875q-0.375 0.4375 -0.375 1.15625l2.671875 0zm11.287338 3.953125l-1.78125 0l0 -6.71875q-0.96875 0.90625 -2.296875 1.34375l0 -1.609375q0.703125 -0.234375 1.515625 -0.875q0.8125 -0.640625 1.125 -1.484375l1.4375 0l0 9.34375z" fill-rule="nonzero"></path><path stroke="#000000" stroke-width="1.3997395038604736" stroke-linecap="butt" d="m194.05898 483.19702l48.874176 0" fill-rule="nonzero"></path><path fill="#f3f3f3" d="m99.99213 507.46133l89.53868 0l0 158.54654l-89.53868 0z" fill-rule="nonzero"></path><path fill="#c2c2c2" d="m189.5308 507.46133l3.4691925 -3.4692078l0 158.54657l-3.4691925 3.4691772z" fill-rule="nonzero"></path><path fill="#f5f5f5" d="m99.99213 507.46133l3.4691925 -3.4692078l89.53868 0l-3.4691925 3.4692078z" fill-rule="nonzero"></path><path fill="#000000" fill-opacity="0.0" d="m99.99213 507.46133l3.4691925 -3.4692078l89.53868 0l0 158.54657l-3.4691925 3.4691772l-89.53868 0zm0 0l89.53868 0l3.4691925 -3.4692078m-3.4691925 3.4692078l0 158.54654" fill-rule="nonzero"></path><path stroke="#000000" stroke-width="2.0" stroke-linejoin="round" stroke-linecap="butt" d="m99.99213 507.46133l3.4691925 -3.4692078l89.53868 0l0 158.54657l-3.4691925 3.4691772l-89.53868 0zm0 0l89.53868 0l3.4691925 -3.4692078m-3.4691925 3.4692078l0 158.54654" fill-rule="nonzero"></path><path fill="#000000" fill-opacity="0.0" d="m109.38901 515.8179l74.20473 0l0 41.13385l-74.20473 0z" fill-rule="nonzero"></path><path fill="#000000" d="m127.78041 532.66473l0 -1.78125l1.78125 0l0 1.78125l-1.78125 0zm0 4.953125l0 -1.78125l1.78125 0l0 1.78125l-1.78125 0zm5.4227448 -4.6875l-1.625 -0.296875q0.28125 -0.96875 0.9375 -1.4375q0.671875 -0.46875 1.984375 -0.46875q1.203125 0 1.78125 0.28125q0.578125 0.28125 0.8125 0.71875q0.25 0.4375 0.25 1.59375l-0.015625 2.078125q0 0.890625 0.078125 1.3125q0.09375 0.421875 0.328125 0.90625l-1.765625 0q-0.078125 -0.171875 -0.171875 -0.53125q-0.046875 -0.15625 -0.0625 -0.203125q-0.46875 0.4375 -0.984375 0.671875q-0.515625 0.21875 -1.109375 0.21875q-1.046875 0 -1.640625 -0.5625q-0.59375 -0.578125 -0.59375 -1.4375q0 -0.5625 0.265625 -1.015625q0.28125 -0.453125 0.765625 -0.6875q0.5 -0.234375 1.421875 -0.421875q1.25 -0.234375 1.734375 -0.4375l0 -0.171875q0 -0.515625 -0.265625 -0.734375q-0.25 -0.21875 -0.953125 -0.21875q-0.46875 0 -0.734375 0.1875q-0.265625 0.1875 -0.4375 0.65625zm2.390625 1.453125q-0.34375 0.109375 -1.09375 0.265625q-0.734375 0.15625 -0.96875 0.3125q-0.34375 0.25 -0.34375 0.625q0 0.375 0.28125 0.65625q0.28125 0.265625 0.703125 0.265625q0.484375 0 0.921875 -0.3125q0.328125 -0.234375 0.421875 -0.59375q0.078125 -0.21875 0.078125 -0.859375l0 -0.359375zm3.5218506 3.671875l2.046875 0.25q0.046875 0.359375 0.234375 0.5q0.25 0.1875 0.796875 0.1875q0.6875 0 1.046875 -0.21875q0.234375 -0.140625 0.359375 -0.4375q0.078125 -0.234375 0.078125 -0.828125l0 -0.984375q-0.796875 1.09375 -2.015625 1.09375q-1.359375 0 -2.15625 -1.15625q-0.625 -0.90625 -0.625 -2.25q0 -1.703125 0.8125 -2.59375q0.828125 -0.890625 2.03125 -0.890625q1.25 0 2.0625 1.09375l0 -0.9375l1.671875 0l0 6.046875q0 1.1875 -0.203125 1.78125q-0.1875 0.59375 -0.546875 0.921875q-0.359375 0.34375 -0.953125 0.53125q-0.59375 0.1875 -1.5 0.1875q-1.703125 0 -2.421875 -0.59375q-0.71875 -0.578125 -0.71875 -1.484375q0 -0.078125 0 -0.21875zm1.59375 -3.953125q0 1.078125 0.40625 1.578125q0.421875 0.5 1.03125 0.5q0.65625 0 1.109375 -0.515625q0.453125 -0.515625 0.453125 -1.515625q0 -1.046875 -0.4375 -1.546875q-0.421875 -0.515625 -1.09375 -0.515625q-0.640625 0 -1.0625 0.5q-0.40625 0.5 -0.40625 1.515625zm10.625732 1.375l1.765625 0.296875q-0.34375 0.96875 -1.078125 1.484375q-0.734375 0.515625 -1.84375 0.515625q-1.765625 0 -2.609375 -1.15625q-0.671875 -0.921875 -0.671875 -2.3125q0 -1.6875 0.875 -2.625q0.890625 -0.953125 2.21875 -0.953125q1.515625 0 2.375 1.0q0.875 0.984375 0.828125 3.03125l-4.46875 0q0.03125 0.796875 0.4375 1.234375q0.40625 0.4375 1.03125 0.4375q0.421875 0 0.703125 -0.21875q0.28125 -0.234375 0.4375 -0.734375zm0.09375 -1.8125q-0.015625 -0.765625 -0.40625 -1.171875q-0.375 -0.40625 -0.921875 -0.40625q-0.578125 0 -0.96875 0.421875q-0.375 0.4375 -0.375 1.15625l2.671875 0zm9.537476 3.953125l-1.78125 0l0 -3.4375q0 -1.09375 -0.125 -1.40625q-0.109375 -0.328125 -0.375 -0.5q-0.25 -0.1875 -0.609375 -0.1875q-0.453125 0 -0.828125 0.265625q-0.359375 0.25 -0.5 0.671875q-0.140625 0.40625 -0.140625 1.546875l0 3.046875l-1.78125 0l0 -6.734375l1.65625 0l0 0.984375q0.875 -1.140625 2.21875 -1.140625q0.59375 0 1.078125 0.21875q0.484375 0.203125 0.734375 0.53125q0.265625 0.328125 0.359375 0.75q0.09375 0.421875 0.09375 1.203125l0 4.1875zm5.1101074 -6.734375l0 1.421875l-1.21875 0l0 2.703125q0 0.828125 0.03125 0.96875q0.03125 0.140625 0.15625 0.234375q0.125 0.078125 0.296875 0.078125q0.25 0 0.71875 -0.171875l0.15625 1.390625q-0.625 0.265625 -1.40625 0.265625q-0.484375 0 -0.875 -0.15625q-0.390625 -0.171875 -0.578125 -0.421875q-0.171875 -0.265625 -0.234375 -0.703125q-0.0625 -0.3125 -0.0625 -1.25l0 -2.9375l-0.8125 0l0 -1.421875l0.8125 0l0 -1.34375l1.796875 -1.046875l0 2.390625l1.21875 0z" fill-rule="nonzero"></path><path stroke="#000000" stroke-width="1.3997395038604734" stroke-linecap="butt" d="m126.49916 539.03064l39.984406 0" fill-rule="nonzero"></path><path fill="#f3f3f3" d="m109.0 568.77954l74.99213 0l0 49.039368l-74.99213 0z" fill-rule="nonzero"></path><path stroke="#000000" stroke-width="2.0" stroke-linejoin="round" stroke-linecap="butt" d="m109.0 568.77954l74.99213 0l0 49.039368l-74.99213 0z" fill-rule="nonzero"></path><path fill="#000000" d="m131.16711 594.83356l1.234375 0.3125q-0.390625 1.515625 -1.40625 2.3125q-1.0 0.796875 -2.453125 0.796875q-1.4999924 0 -2.4531174 -0.609375q-0.9375 -0.609375 -1.4375 -1.765625q-0.484375 -1.171875 -0.484375 -2.5q0 -1.453125 0.5625 -2.53125q0.5625 -1.09375 1.578125 -1.65625q1.03125 -0.5625 2.2656174 -0.5625q1.390625 0 2.34375 0.71875q0.953125 0.703125 1.328125 2.0l-1.21875 0.28125q-0.328125 -1.015625 -0.9375 -1.46875q-0.609375 -0.46875 -1.546875 -0.46875q-1.0781174 0 -1.7968674 0.515625q-0.71875 0.515625 -1.015625 1.375q-0.28125 0.859375 -0.28125 1.78125q0 1.1875 0.34375 2.078125q0.34375 0.890625 1.0625 1.328125q0.734375 0.4375 1.5937424 0.4375q1.03125 0 1.75 -0.59375q0.71875 -0.609375 0.96875 -1.78125zm7.2345276 2.4375q-0.625 0.53125 -1.21875 0.765625q-0.578125 0.21875 -1.25 0.21875q-1.125 0 -1.71875 -0.546875q-0.59375 -0.546875 -0.59375 -1.390625q0 -0.484375 0.21875 -0.890625q0.234375 -0.421875 0.59375 -0.671875q0.375 -0.25 0.828125 -0.375q0.328125 -0.078125 1.015625 -0.171875q1.375 -0.15625 2.03125 -0.390625q0.015625 -0.234375 0.015625 -0.296875q0 -0.703125 -0.328125 -0.984375q-0.4375 -0.390625 -1.296875 -0.390625q-0.8125 0 -1.203125 0.28125q-0.375 0.28125 -0.5625 1.0l-1.109375 -0.140625q0.140625 -0.71875 0.484375 -1.15625q0.359375 -0.453125 1.015625 -0.6875q0.671875 -0.234375 1.53125 -0.234375q0.875 0 1.40625 0.203125q0.546875 0.203125 0.796875 0.515625q0.25 0.296875 0.359375 0.765625q0.046875 0.296875 0.046875 1.0625l0 1.515625q0 1.59375 0.078125 2.015625q0.078125 0.421875 0.28125 0.8125l-1.1875 0q-0.171875 -0.359375 -0.234375 -0.828125zm-0.09375 -2.5625q-0.625 0.265625 -1.859375 0.4375q-0.703125 0.109375 -1.0 0.234375q-0.296875 0.125 -0.453125 0.375q-0.15625 0.234375 -0.15625 0.53125q0 0.453125 0.34375 0.765625q0.34375 0.296875 1.015625 0.296875q0.65625 0 1.171875 -0.28125q0.515625 -0.296875 0.765625 -0.796875q0.171875 -0.375 0.171875 -1.140625l0 -0.421875zm5.6156006 2.375l0.15625 1.0q-0.484375 0.109375 -0.859375 0.109375q-0.625 0 -0.96875 -0.203125q-0.34375 -0.203125 -0.484375 -0.515625q-0.140625 -0.328125 -0.140625 -1.34375l0 -3.890625l-0.828125 0l0 -0.875l0.828125 0l0 -1.671875l1.140625 -0.6875l0 2.359375l1.15625 0l0 0.875l-1.15625 0l0 3.953125q0 0.484375 0.0625 0.625q0.0625 0.140625 0.1875 0.21875q0.140625 0.078125 0.390625 0.078125q0.203125 0 0.515625 -0.03125zm5.593628 0.1875q-0.625 0.53125 -1.21875 0.765625q-0.578125 0.21875 -1.25 0.21875q-1.125 0 -1.71875 -0.546875q-0.59375 -0.546875 -0.59375 -1.390625q0 -0.484375 0.21875 -0.890625q0.234375 -0.421875 0.59375 -0.671875q0.375 -0.25 0.828125 -0.375q0.328125 -0.078125 1.015625 -0.171875q1.375 -0.15625 2.03125 -0.390625q0.015625 -0.234375 0.015625 -0.296875q0 -0.703125 -0.328125 -0.984375q-0.4375 -0.390625 -1.296875 -0.390625q-0.8125 0 -1.203125 0.28125q-0.375 0.28125 -0.5625 1.0l-1.109375 -0.140625q0.140625 -0.71875 0.484375 -1.15625q0.359375 -0.453125 1.015625 -0.6875q0.671875 -0.234375 1.53125 -0.234375q0.875 0 1.40625 0.203125q0.546875 0.203125 0.796875 0.515625q0.25 0.296875 0.359375 0.765625q0.046875 0.296875 0.046875 1.0625l0 1.515625q0 1.59375 0.078125 2.015625q0.078125 0.421875 0.28125 0.8125l-1.1875 0q-0.171875 -0.359375 -0.234375 -0.828125zm-0.09375 -2.5625q-0.625 0.265625 -1.859375 0.4375q-0.703125 0.109375 -1.0 0.234375q-0.296875 0.125 -0.453125 0.375q-0.15625 0.234375 -0.15625 0.53125q0 0.453125 0.34375 0.765625q0.34375 0.296875 1.015625 0.296875q0.65625 0 1.171875 -0.28125q0.515625 -0.296875 0.765625 -0.796875q0.171875 -0.375 0.171875 -1.140625l0 -0.421875zm3.0843506 3.390625l0 -9.3125l1.140625 0l0 9.3125l-1.140625 0zm2.570465 -3.375q0 -1.875 1.03125 -2.765625q0.875 -0.75 2.125 -0.75q1.390625 0 2.265625 0.90625q0.890625 0.90625 0.890625 2.515625q0 1.296875 -0.390625 2.046875q-0.390625 0.75 -1.140625 1.171875q-0.75 0.40625 -1.625 0.40625q-1.421875 0 -2.296875 -0.90625q-0.859375 -0.90625 -0.859375 -2.625zm1.171875 0q0 1.296875 0.5625 1.953125q0.5625 0.640625 1.421875 0.640625q0.84375 0 1.40625 -0.640625q0.578125 -0.65625 0.578125 -1.984375q0 -1.25 -0.578125 -1.890625q-0.5625 -0.65625 -1.40625 -0.65625q-0.859375 0 -1.421875 0.640625q-0.5625 0.640625 -0.5625 1.9375zm6.4437256 3.9375l1.125 0.15625q0.0625 0.515625 0.375 0.75q0.4375 0.328125 1.171875 0.328125q0.78125 0 1.21875 -0.328125q0.4375 -0.3125 0.578125 -0.890625q0.09375 -0.34375 0.09375 -1.453125q-0.75 0.875 -1.875 0.875q-1.390625 0 -2.15625 -1.0q-0.75 -1.0 -0.75 -2.40625q0 -0.96875 0.34375 -1.78125q0.359375 -0.8125 1.015625 -1.25q0.65625 -0.453125 1.5625 -0.453125q1.1875 0 1.96875 0.96875l0 -0.8125l1.046875 0l0 5.8125q0 1.578125 -0.328125 2.234375q-0.3125 0.65625 -1.015625 1.03125q-0.6875 0.390625 -1.703125 0.390625q-1.203125 0 -1.953125 -0.546875q-0.734375 -0.53125 -0.71875 -1.625zm0.953125 -4.046875q0 1.3125 0.515625 1.921875q0.53125 0.609375 1.328125 0.609375q0.796875 0 1.328125 -0.59375q0.53125 -0.609375 0.53125 -1.90625q0 -1.234375 -0.546875 -1.859375q-0.546875 -0.640625 -1.328125 -0.640625q-0.765625 0 -1.296875 0.625q-0.53125 0.625 -0.53125 1.84375z" fill-rule="nonzero"></path><path fill="#f3f3f3" d="m221.0 508.57974l118.40451 0l0 157.42813l-118.40451 0z" fill-rule="nonzero"></path><path fill="#c2c2c2" d="m339.4045 508.57974l4.587616 -4.587616l0 157.42816l-4.587616 4.5875854z" fill-rule="nonzero"></path><path fill="#f5f5f5" d="m221.0 508.57974l4.5876007 -4.587616l118.404526 0l-4.587616 4.587616z" fill-rule="nonzero"></path><path fill="#000000" fill-opacity="0.0" d="m221.0 508.57974l4.5876007 -4.587616l118.404526 0l0 157.42816l-4.587616 4.5875854l-118.40451 0zm0 0l118.40451 0l4.587616 -4.587616m-4.587616 4.587616l0 157.42813" fill-rule="nonzero"></path><path stroke="#000000" stroke-width="2.0" stroke-linejoin="round" stroke-linecap="butt" d="m221.0 508.57974l4.5876007 -4.587616l118.404526 0l0 157.42816l-4.587616 4.5875854l-118.40451 0zm0 0l118.40451 0l4.587616 -4.587616m-4.587616 4.587616l0 157.42813" fill-rule="nonzero"></path><path fill="#000000" fill-opacity="0.0" d="m233.42708 515.8179l98.14174 0l0 41.13385l-98.14174 0z" fill-rule="nonzero"></path><path fill="#000000" d="m246.38492 532.66473l0 -1.78125l1.78125 0l0 1.78125l-1.78125 0zm0 4.953125l0 -1.78125l1.78125 0l0 1.78125l-1.78125 0zm5.4227448 -4.6875l-1.625 -0.296875q0.28125 -0.96875 0.9375 -1.4375q0.671875 -0.46875 1.984375 -0.46875q1.203125 0 1.78125 0.28125q0.578125 0.28125 0.8125 0.71875q0.25 0.4375 0.25 1.59375l-0.015625 2.078125q0 0.890625 0.07814026 1.3125q0.09375 0.421875 0.328125 0.90625l-1.7656403 0q-0.078125 -0.171875 -0.171875 -0.53125q-0.046875 -0.15625 -0.0625 -0.203125q-0.46875 0.4375 -0.984375 0.671875q-0.515625 0.21875 -1.109375 0.21875q-1.046875 0 -1.640625 -0.5625q-0.59375 -0.578125 -0.59375 -1.4375q0 -0.5625 0.265625 -1.015625q0.28125 -0.453125 0.765625 -0.6875q0.5 -0.234375 1.421875 -0.421875q1.25 -0.234375 1.734375 -0.4375l0 -0.171875q0 -0.515625 -0.265625 -0.734375q-0.25 -0.21875 -0.953125 -0.21875q-0.46875 0 -0.734375 0.1875q-0.265625 0.1875 -0.4375 0.65625zm2.390625 1.453125q-0.34375 0.109375 -1.09375 0.265625q-0.734375 0.15625 -0.96875 0.3125q-0.34375 0.25 -0.34375 0.625q0 0.375 0.28125 0.65625q0.28125 0.265625 0.703125 0.265625q0.484375 0 0.921875 -0.3125q0.328125 -0.234375 0.421875 -0.59375q0.078125 -0.21875 0.078125 -0.859375l0 -0.359375zm3.6312408 -3.5l1.671875 0l0 0.984375q0.328125 -0.515625 0.875 -0.828125q0.546875 -0.3125 1.21875 -0.3125q1.1875 0 2.0 0.921875q0.8125 0.921875 0.8125 2.5625q0 1.6875 -0.828125 2.625q-0.8125 0.9375 -1.984375 0.9375q-0.5625 0 -1.015625 -0.21875q-0.453125 -0.234375 -0.953125 -0.765625l0 3.390625l-1.796875 0l0 -9.296875zm1.765625 3.25q0 1.140625 0.453125 1.6875q0.453125 0.53125 1.109375 0.53125q0.609375 0 1.015625 -0.5q0.421875 -0.5 0.421875 -1.625q0 -1.0625 -0.421875 -1.578125q-0.421875 -0.515625 -1.046875 -0.515625q-0.65625 0 -1.09375 0.515625q-0.4375 0.5 -0.4375 1.484375zm6.3757324 -3.25l1.671875 0l0 0.984375q0.328125 -0.515625 0.875 -0.828125q0.546875 -0.3125 1.21875 -0.3125q1.1875 0 2.0 0.921875q0.8125 0.921875 0.8125 2.5625q0 1.6875 -0.828125 2.625q-0.8125 0.9375 -1.984375 0.9375q-0.5625 0 -1.015625 -0.21875q-0.453125 -0.234375 -0.953125 -0.765625l0 3.390625l-1.796875 0l0 -9.296875zm1.765625 3.25q0 1.140625 0.453125 1.6875q0.453125 0.53125 1.109375 0.53125q0.609375 0 1.015625 -0.5q0.421875 -0.5 0.421875 -1.625q0 -1.0625 -0.421875 -1.578125q-0.421875 -0.515625 -1.046875 -0.515625q-0.65625 0 -1.09375 0.515625q-0.4375 0.5 -0.4375 1.484375zm6.4382324 3.484375l0 -9.3125l1.78125 0l0 9.3125l-1.78125 0zm3.7029724 -7.65625l0 -1.65625l1.78125 0l0 1.65625l-1.78125 0zm0 7.65625l0 -6.734375l1.78125 0l0 6.734375l-1.78125 0zm9.578003 -4.75l-1.765625 0.3125q-0.078125 -0.515625 -0.40625 -0.78125q-0.3125 -0.265625 -0.8125 -0.265625q-0.65625 0 -1.0625 0.453125q-0.390625 0.453125 -0.390625 1.546875q0 1.1875 0.40625 1.6875q0.40625 0.5 1.078125 0.5q0.515625 0 0.828125 -0.28125q0.328125 -0.296875 0.453125 -1.0l1.765625 0.296875q-0.28125 1.203125 -1.0625 1.828125q-0.765625 0.609375 -2.0625 0.609375q-1.484375 0 -2.359375 -0.9375q-0.875 -0.9375 -0.875 -2.578125q0 -1.671875 0.875 -2.59375q0.875 -0.9375 2.390625 -0.9375q1.234375 0 1.953125 0.53125q0.734375 0.53125 1.046875 1.609375zm2.8656006 0.0625l-1.625 -0.296875q0.28125 -0.96875 0.9375 -1.4375q0.671875 -0.46875 1.984375 -0.46875q1.203125 0 1.78125 0.28125q0.578125 0.28125 0.8125 0.71875q0.25 0.4375 0.25 1.59375l-0.015625 2.078125q0 0.890625 0.078125 1.3125q0.09375 0.421875 0.328125 0.90625l-1.765625 0q-0.078125 -0.171875 -0.171875 -0.53125q-0.046875 -0.15625 -0.0625 -0.203125q-0.46875 0.4375 -0.984375 0.671875q-0.515625 0.21875 -1.109375 0.21875q-1.046875 0 -1.640625 -0.5625q-0.59375 -0.578125 -0.59375 -1.4375q0 -0.5625 0.265625 -1.015625q0.28125 -0.453125 0.765625 -0.6875q0.5 -0.234375 1.421875 -0.421875q1.25 -0.234375 1.734375 -0.4375l0 -0.171875q0 -0.515625 -0.265625 -0.734375q-0.25 -0.21875 -0.953125 -0.21875q-0.46875 0 -0.734375 0.1875q-0.265625 0.1875 -0.4375 0.65625zm2.390625 1.453125q-0.34375 0.109375 -1.09375 0.265625q-0.734375 0.15625 -0.96875 0.3125q-0.34375 0.25 -0.34375 0.625q0 0.375 0.28125 0.65625q0.28125 0.265625 0.703125 0.265625q0.484375 0 0.921875 -0.3125q0.328125 -0.234375 0.421875 -0.59375q0.078125 -0.21875 0.078125 -0.859375l0 -0.359375zm6.7874756 -3.5l0 1.421875l-1.21875 0l0 2.703125q0 0.828125 0.03125 0.96875q0.03125 0.140625 0.15625 0.234375q0.125 0.078125 0.296875 0.078125q0.25 0 0.71875 -0.171875l0.15625 1.390625q-0.625 0.265625 -1.40625 0.265625q-0.484375 0 -0.875 -0.15625q-0.390625 -0.171875 -0.578125 -0.421875q-0.171875 -0.265625 -0.234375 -0.703125q-0.0625 -0.3125 -0.0625 -1.25l0 -2.9375l-0.8125 0l0 -1.421875l0.8125 0l0 -1.34375l1.796875 -1.046875l0 2.390625l1.21875 0zm1.3446045 -0.921875l0 -1.65625l1.78125 0l0 1.65625l-1.78125 0zm0 7.65625l0 -6.734375l1.78125 0l0 6.734375l-1.78125 0zm3.281128 -3.46875q0 -0.890625 0.4375 -1.71875q0.4375 -0.828125 1.234375 -1.265625q0.8125 -0.4375 1.8125 -0.4375q1.515625 0 2.5 1.0q0.984375 0.984375 0.984375 2.5q0 1.53125 -1.0 2.546875q-0.984375 1.0 -2.484375 1.0q-0.921875 0 -1.765625 -0.421875q-0.84375 -0.421875 -1.28125 -1.21875q-0.4375 -0.8125 -0.4375 -1.984375zm1.828125 0.09375q0 1.0 0.46875 1.546875q0.484375 0.53125 1.1875 0.53125q0.703125 0 1.171875 -0.53125q0.46875 -0.546875 0.46875 -1.5625q0 -0.984375 -0.46875 -1.515625q-0.46875 -0.53125 -1.171875 -0.53125q-0.703125 0 -1.1875 0.53125q-0.46875 0.53125 -0.46875 1.53125zm12.860107 3.375l-1.78125 0l0 -3.4375q0 -1.09375 -0.125 -1.40625q-0.109375 -0.328125 -0.375 -0.5q-0.25 -0.1875 -0.609375 -0.1875q-0.453125 0 -0.828125 0.265625q-0.359375 0.25 -0.5 0.671875q-0.140625 0.40625 -0.140625 1.546875l0 3.046875l-1.78125 0l0 -6.734375l1.65625 0l0 0.984375q0.875 -1.140625 2.21875 -1.140625q0.59375 0 1.078125 0.21875q0.484375 0.203125 0.734375 0.53125q0.265625 0.328125 0.359375 0.75q0.09375 0.421875 0.09375 1.203125l0 4.1875z" fill-rule="nonzero"></path><path stroke="#000000" stroke-width="1.3997395038604736" stroke-linecap="butt" d="m245.10367 539.03064l74.788574 0" fill-rule="nonzero"></path><path fill="#000000" d="m255.40578 551.696l1.7812347 -0.28125q0.109375 0.53125 0.453125 0.796875q0.359375 0.265625 0.984375 0.265625q0.703125 0 1.046875 -0.25q0.234375 -0.171875 0.234375 -0.46875q0 -0.203125 -0.125 -0.34375q-0.140625 -0.125 -0.59375 -0.234375q-2.15625 -0.46875 -2.734375 -0.875q-0.81248474 -0.546875 -0.81248474 -1.515625q0 -0.875 0.68748474 -1.46875q0.703125 -0.59375 2.15625 -0.59375q1.390625 0 2.0625 0.453125q0.671875 0.4375 0.921875 1.328125l-1.6875 0.3125q-0.109375 -0.390625 -0.40625 -0.59375q-0.296875 -0.21875 -0.859375 -0.21875q-0.703125 0 -1.015625 0.1875q-0.203125 0.140625 -0.203125 0.375q0 0.1875 0.1875 0.3125q0.234375 0.1875 1.65625 0.515625q1.4375 0.3125 2.0 0.78125q0.5625 0.484375 0.5625 1.328125q0 0.921875 -0.78125 1.59375q-0.78125 0.671875 -2.296875 0.671875q-1.375 0 -2.1875 -0.5625q-0.79685974 -0.5625 -1.0312347 -1.515625zm7.6155853 -1.546875q0 -0.890625 0.4375 -1.71875q0.4375 -0.828125 1.234375 -1.265625q0.8125 -0.4375 1.8125 -0.4375q1.515625 0 2.5 1.0q0.984375 0.984375 0.984375 2.5q0 1.53125 -1.0 2.546875q-0.984375 1.0 -2.484375 1.0q-0.921875 0 -1.765625 -0.421875q-0.84375 -0.421875 -1.28125 -1.21875q-0.4375 -0.8125 -0.4375 -1.984375zm1.828125 0.09375q0 1.0 0.46875 1.546875q0.484375 0.53125 1.1875 0.53125q0.703125 0 1.171875 -0.53125q0.46875 -0.546875 0.46875 -1.5625q0 -0.984375 -0.46875 -1.515625q-0.46875 -0.53125 -1.171875 -0.53125q-0.703125 0 -1.1875 0.53125q-0.46875 0.53125 -0.46875 1.53125zm5.9538574 -3.359375l0.984375 0l0 -0.515625q0 -0.84375 0.171875 -1.265625q0.1875 -0.421875 0.671875 -0.6875q0.484375 -0.265625 1.234375 -0.265625q0.765625 0 1.484375 0.234375l-0.234375 1.25q-0.421875 -0.109375 -0.8125 -0.109375q-0.390625 0 -0.5625 0.1875q-0.171875 0.171875 -0.171875 0.6875l0 0.484375l1.34375 0l0 1.390625l-1.34375 0l0 5.34375l-1.78125 0l0 -5.34375l-0.984375 0l0 -1.390625zm8.313385 0l0 1.421875l-1.21875 0l0 2.703125q0 0.828125 0.03125 0.96875q0.03125 0.140625 0.15625 0.234375q0.125 0.078125 0.296875 0.078125q0.25 0 0.71875 -0.171875l0.15625 1.390625q-0.625 0.265625 -1.40625 0.265625q-0.484375 0 -0.875 -0.15625q-0.390625 -0.171875 -0.578125 -0.421875q-0.171875 -0.265625 -0.234375 -0.703125q-0.0625 -0.3125 -0.0625 -1.25l0 -2.9375l-0.8125 0l0 -1.421875l0.8125 0l0 -1.34375l1.796875 -1.046875l0 2.390625l1.21875 0zm2.5946045 6.734375l-2.125 -6.734375l1.734375 0l1.25 4.40625l1.171875 -4.40625l1.71875 0l1.125 4.40625l1.28125 -4.40625l1.765625 0l-2.171875 6.734375l-1.703125 0l-1.171875 -4.328125l-1.140625 4.328125l-1.734375 0zm10.44519 -4.6875l-1.625 -0.296875q0.28125 -0.96875 0.9375 -1.4375q0.671875 -0.46875 1.984375 -0.46875q1.203125 0 1.78125 0.28125q0.578125 0.28125 0.8125 0.71875q0.25 0.4375 0.25 1.59375l-0.015625 2.078125q0 0.890625 0.078125 1.3125q0.09375 0.421875 0.328125 0.90625l-1.765625 0q-0.078125 -0.171875 -0.171875 -0.53125q-0.046875 -0.15625 -0.0625 -0.203125q-0.46875 0.4375 -0.984375 0.671875q-0.515625 0.21875 -1.109375 0.21875q-1.046875 0 -1.640625 -0.5625q-0.59375 -0.578125 -0.59375 -1.4375q0 -0.5625 0.265625 -1.015625q0.28125 -0.453125 0.765625 -0.6875q0.5 -0.234375 1.421875 -0.421875q1.25 -0.234375 1.734375 -0.4375l0 -0.171875q0 -0.515625 -0.265625 -0.734375q-0.25 -0.21875 -0.953125 -0.21875q-0.46875 0 -0.734375 0.1875q-0.265625 0.1875 -0.4375 0.65625zm2.390625 1.453125q-0.34375 0.109375 -1.09375 0.265625q-0.734375 0.15625 -0.96875 0.3125q-0.34375 0.25 -0.34375 0.625q0 0.375 0.28125 0.65625q0.28125 0.265625 0.703125 0.265625q0.484375 0 0.921875 -0.3125q0.328125 -0.234375 0.421875 -0.59375q0.078125 -0.21875 0.078125 -0.859375l0 -0.359375zm5.3968506 3.234375l-1.78125 0l0 -6.734375l1.65625 0l0 0.953125q0.421875 -0.6875 0.765625 -0.890625q0.34375 -0.21875 0.765625 -0.21875q0.609375 0 1.171875 0.328125l-0.546875 1.5625q-0.453125 -0.296875 -0.84375 -0.296875q-0.375 0 -0.640625 0.21875q-0.25 0.203125 -0.40625 0.75q-0.140625 0.53125 -0.140625 2.25l0 2.078125zm7.3898926 -2.140625l1.765625 0.296875q-0.34375 0.96875 -1.078125 1.484375q-0.734375 0.515625 -1.84375 0.515625q-1.765625 0 -2.609375 -1.15625q-0.671875 -0.921875 -0.671875 -2.3125q0 -1.6875 0.875 -2.625q0.890625 -0.953125 2.21875 -0.953125q1.515625 0 2.375 1.0q0.875 0.984375 0.828125 3.03125l-4.46875 0q0.03125 0.796875 0.4375 1.234375q0.40625 0.4375 1.03125 0.4375q0.421875 0 0.703125 -0.21875q0.28125 -0.234375 0.4375 -0.734375zm0.09375 -1.8125q-0.015625 -0.765625 -0.40625 -1.171875q-0.375 -0.40625 -0.921875 -0.40625q-0.578125 0 -0.96875 0.421875q-0.375 0.4375 -0.375 1.15625l2.671875 0z" fill-rule="nonzero"></path><path stroke="#000000" stroke-width="1.3997395038604736" stroke-linecap="butt" d="m255.09328 555.03064l54.80934 0" fill-rule="nonzero"></path><path fill="#f3f3f3" d="m712.0 426.9964l280.99573 0l0 258.0036l-280.99573 0z" fill-rule="nonzero"></path><path fill="#c2c2c2" d="m992.9957 426.9964l9.996399 -9.996399l0 258.0036l-9.996399 9.996399z" fill-rule="nonzero"></path><path fill="#f5f5f5" d="m712.0 426.9964l9.996399 -9.996399l280.99573 0l-9.996399 9.996399z" fill-rule="nonzero"></path><path fill="#000000" fill-opacity="0.0" d="m712.0 426.9964l9.996399 -9.996399l280.99573 0l0 258.0036l-9.996399 9.996399l-280.99573 0zm0 0l280.99573 0l9.996399 -9.996399m-9.996399 9.996399l0 258.0036" fill-rule="nonzero"></path><path stroke="#000000" stroke-width="2.0" stroke-linejoin="round" stroke-linecap="butt" d="m712.0 426.9964l9.996399 -9.996399l280.99573 0l0 258.0036l-9.996399 9.996399l-280.99573 0zm0 0l280.99573 0l9.996399 -9.996399m-9.996399 9.996399l0 258.0036" fill-rule="nonzero"></path><path fill="#000000" fill-opacity="0.0" d="m820.0 434.0l74.99213 0l0 25.984253l-74.99213 0z" fill-rule="nonzero"></path><path fill="#000000" d="m831.1681 451.7375l0 -1.078125l6.15625 -2.59375l0 1.125l-4.890625 2.015625l4.890625 2.015625l0 1.140625l-6.15625 -2.625zm12.299011 4.0625l0 -0.84375q-0.640625 1.0 -1.890625 1.0q-0.796875 0 -1.484375 -0.4375q-0.671875 -0.453125 -1.046875 -1.25q-0.375 -0.796875 -0.375 -1.828125q0 -1.015625 0.34375 -1.828125q0.34375 -0.828125 1.015625 -1.265625q0.671875 -0.4375 1.5 -0.4375q0.609375 0 1.078125 0.265625q0.484375 0.25 0.78125 0.65625l0 -3.34375l1.140625 0l0 9.3125l-1.0625 0zm-3.609375 -3.359375q0 1.296875 0.53125 1.9375q0.546875 0.640625 1.296875 0.640625q0.75 0 1.265625 -0.609375q0.53125 -0.625 0.53125 -1.875q0 -1.390625 -0.53125 -2.03125q-0.53125 -0.65625 -1.3125 -0.65625q-0.765625 0 -1.28125 0.625q-0.5 0.625 -0.5 1.96875zm11.256226 1.1875l1.1875 0.140625q-0.28125 1.046875 -1.046875 1.625q-0.75 0.5625 -1.921875 0.5625q-1.484375 0 -2.359375 -0.90625q-0.859375 -0.921875 -0.859375 -2.5625q0 -1.703125 0.875 -2.640625q0.890625 -0.9375 2.28125 -0.9375q1.359375 0 2.203125 0.921875q0.859375 0.921875 0.859375 2.578125q0 0.109375 0 0.3125l-5.03125 0q0.0625 1.109375 0.625 1.703125q0.5625 0.59375 1.40625 0.59375q0.640625 0 1.078125 -0.328125q0.453125 -0.34375 0.703125 -1.0625zm-3.75 -1.84375l3.765625 0q-0.078125 -0.859375 -0.4375 -1.28125q-0.546875 -0.65625 -1.40625 -0.65625q-0.796875 0 -1.328125 0.53125q-0.53125 0.515625 -0.59375 1.40625zm8.428101 4.015625l-2.5625 -6.734375l1.203125 0l1.4375 4.03125q0.234375 0.65625 0.4375 1.359375q0.15625 -0.53125 0.421875 -1.28125l1.5 -4.109375l1.171875 0l-2.546875 6.734375l-1.0625 0zm4.7890625 -7.984375l0 -1.328125l1.140625 0l0 1.328125l-1.140625 0zm0 7.984375l0 -6.734375l1.140625 0l0 6.734375l-1.140625 0zm7.3517456 -2.46875l1.125 0.140625q-0.171875 1.171875 -0.9375 1.828125q-0.765625 0.65625 -1.859375 0.65625q-1.390625 0 -2.234375 -0.90625q-0.828125 -0.90625 -0.828125 -2.59375q0 -1.09375 0.359375 -1.90625q0.359375 -0.828125 1.09375 -1.234375q0.734375 -0.40625 1.609375 -0.40625q1.09375 0 1.796875 0.5625q0.703125 0.546875 0.890625 1.5625l-1.109375 0.171875q-0.15625 -0.671875 -0.5625 -1.015625q-0.390625 -0.34375 -0.96875 -0.34375q-0.859375 0 -1.40625 0.625q-0.53125 0.609375 -0.53125 1.953125q0 1.359375 0.515625 1.984375q0.515625 0.609375 1.359375 0.609375q0.671875 0 1.125 -0.40625q0.453125 -0.421875 0.5625 -1.28125zm6.8828125 0.296875l1.1875 0.140625q-0.28125 1.046875 -1.046875 1.625q-0.75 0.5625 -1.921875 0.5625q-1.484375 0 -2.359375 -0.90625q-0.859375 -0.921875 -0.859375 -2.5625q0 -1.703125 0.875 -2.640625q0.890625 -0.9375 2.28125 -0.9375q1.359375 0 2.203125 0.921875q0.859375 0.921875 0.859375 2.578125q0 0.109375 0 0.3125l-5.03125 0q0.0625 1.109375 0.625 1.703125q0.5625 0.59375 1.40625 0.59375q0.640625 0 1.078125 -0.328125q0.453125 -0.34375 0.703125 -1.0625zm-3.75 -1.84375l3.765625 0q-0.078125 -0.859375 -0.4375 -1.28125q-0.546875 -0.65625 -1.40625 -0.65625q-0.796875 0 -1.328125 0.53125q-0.53125 0.515625 -0.59375 1.40625zm12.568726 -0.046875l-6.15625 2.625l0 -1.140625l4.875 -2.015625l-4.875 -2.015625l0 -1.125l6.15625 2.59375l0 1.078125z" fill-rule="nonzero"></path><path fill="#000000" fill-opacity="0.0" d="m790.50397 459.98425l133.98419 0l0 33.007874l-133.98419 0z" fill-rule="nonzero"></path><path fill="#000000" d="m833.2339 476.83112l0 -1.78125l1.78125 0l0 1.78125l-1.78125 0zm0 4.953125l0 -1.78125l1.78125 0l0 1.78125l-1.78125 0zm4.1258545 0l0 -9.3125l1.828125 0l3.8125 6.21875l0 -6.21875l1.734375 0l0 9.3125l-1.875 0l-3.765625 -6.0625l0 6.0625l-1.734375 0zm9.172058 -3.46875q0 -0.890625 0.4375 -1.71875q0.4375 -0.828125 1.234375 -1.265625q0.8125 -0.4375 1.8125 -0.4375q1.515625 0 2.5 1.0q0.984375 0.984375 0.984375 2.5q0 1.53125 -1.0 2.546875q-0.984375 1.0 -2.484375 1.0q-0.921875 0 -1.765625 -0.421875q-0.84375 -0.421875 -1.28125 -1.21875q-0.4375 -0.8125 -0.4375 -1.984375zm1.828125 0.09375q0 1.0 0.46875 1.546875q0.484375 0.53125 1.1875 0.53125q0.703125 0 1.171875 -0.53125q0.46875 -0.546875 0.46875 -1.5625q0 -0.984375 -0.46875 -1.515625q-0.46875 -0.53125 -1.171875 -0.53125q-0.703125 0 -1.1875 0.53125q-0.46875 0.53125 -0.46875 1.53125zm12.906982 3.375l-1.65625 0l0 -0.984375q-0.40625 0.578125 -0.96875 0.859375q-0.5625 0.28125 -1.125 0.28125q-1.171875 0 -2.0 -0.9375q-0.828125 -0.9375 -0.828125 -2.609375q0 -1.71875 0.796875 -2.609375q0.8125 -0.890625 2.046875 -0.890625q1.125 0 1.953125 0.9375l0 -3.359375l1.78125 0l0 9.3125zm-4.75 -3.515625q0 1.078125 0.296875 1.5625q0.421875 0.703125 1.203125 0.703125q0.609375 0 1.046875 -0.515625q0.4375 -0.53125 0.4375 -1.578125q0 -1.15625 -0.421875 -1.671875q-0.421875 -0.515625 -1.078125 -0.515625q-0.625 0 -1.0625 0.515625q-0.421875 0.5 -0.421875 1.5zm10.625732 1.375l1.765625 0.296875q-0.34375 0.96875 -1.078125 1.484375q-0.734375 0.515625 -1.84375 0.515625q-1.765625 0 -2.609375 -1.15625q-0.671875 -0.921875 -0.671875 -2.3125q0 -1.6875 0.875 -2.625q0.890625 -0.953125 2.21875 -0.953125q1.515625 0 2.375 1.0q0.875 0.984375 0.828125 3.03125l-4.46875 0q0.03125 0.796875 0.4375 1.234375q0.40625 0.4375 1.03125 0.4375q0.421875 0 0.703125 -0.21875q0.28125 -0.234375 0.4375 -0.734375zm0.09375 -1.8125q-0.015625 -0.765625 -0.40625 -1.171875q-0.375 -0.40625 -0.921875 -0.40625q-0.578125 0 -0.96875 0.421875q-0.375 0.4375 -0.375 1.15625l2.671875 0zm7.1467285 3.953125l0 -9.3125l1.828125 0l3.8125 6.21875l0 -6.21875l1.734375 0l0 9.3125l-1.875 0l-3.765625 -6.0625l0 6.0625l-1.734375 0z" fill-rule="nonzero"></path><path stroke="#000000" stroke-width="1.3997395038604736" stroke-linecap="butt" d="m831.95264 483.19702l51.086853 0" fill-rule="nonzero"></path><path fill="#f3f3f3" d="m738.9921 507.46133l89.5387 0l0 158.54654l-89.5387 0z" fill-rule="nonzero"></path><path fill="#c2c2c2" d="m828.5308 507.46133l3.4691772 -3.4692078l0 158.54657l-3.4691772 3.4691772z" fill-rule="nonzero"></path><path fill="#f5f5f5" d="m738.9921 507.46133l3.4691772 -3.4692078l89.5387 0l-3.4691772 3.4692078z" fill-rule="nonzero"></path><path fill="#000000" fill-opacity="0.0" d="m738.9921 507.46133l3.4691772 -3.4692078l89.5387 0l0 158.54657l-3.4691772 3.4691772l-89.5387 0zm0 0l89.5387 0l3.4691772 -3.4692078m-3.4691772 3.4692078l0 158.54654" fill-rule="nonzero"></path><path stroke="#000000" stroke-width="2.0" stroke-linejoin="round" stroke-linecap="butt" d="m738.9921 507.46133l3.4691772 -3.4692078l89.5387 0l0 158.54657l-3.4691772 3.4691772l-89.5387 0zm0 0l89.5387 0l3.4691772 -3.4692078m-3.4691772 3.4692078l0 158.54654" fill-rule="nonzero"></path><path fill="#000000" fill-opacity="0.0" d="m748.38904 515.8179l74.20471 0l0 41.13385l-74.20471 0z" fill-rule="nonzero"></path><path fill="#000000" d="m766.78046 532.66473l0 -1.78125l1.78125 0l0 1.78125l-1.78125 0zm0 4.953125l0 -1.78125l1.78125 0l0 1.78125l-1.78125 0zm5.4227295 -4.6875l-1.625 -0.296875q0.28125 -0.96875 0.9375 -1.4375q0.671875 -0.46875 1.984375 -0.46875q1.203125 0 1.78125 0.28125q0.578125 0.28125 0.8125 0.71875q0.25 0.4375 0.25 1.59375l-0.015625 2.078125q0 0.890625 0.078125 1.3125q0.09375 0.421875 0.328125 0.90625l-1.765625 0q-0.078125 -0.171875 -0.171875 -0.53125q-0.046875 -0.15625 -0.0625 -0.203125q-0.46875 0.4375 -0.984375 0.671875q-0.515625 0.21875 -1.109375 0.21875q-1.046875 0 -1.640625 -0.5625q-0.59375 -0.578125 -0.59375 -1.4375q0 -0.5625 0.265625 -1.015625q0.28125 -0.453125 0.765625 -0.6875q0.5 -0.234375 1.421875 -0.421875q1.25 -0.234375 1.734375 -0.4375l0 -0.171875q0 -0.515625 -0.265625 -0.734375q-0.25 -0.21875 -0.953125 -0.21875q-0.46875 0 -0.734375 0.1875q-0.265625 0.1875 -0.4375 0.65625zm2.390625 1.453125q-0.34375 0.109375 -1.09375 0.265625q-0.734375 0.15625 -0.96875 0.3125q-0.34375 0.25 -0.34375 0.625q0 0.375 0.28125 0.65625q0.28125 0.265625 0.703125 0.265625q0.484375 0 0.921875 -0.3125q0.328125 -0.234375 0.421875 -0.59375q0.078125 -0.21875 0.078125 -0.859375l0 -0.359375zm3.5218506 3.671875l2.046875 0.25q0.046875 0.359375 0.234375 0.5q0.25 0.1875 0.796875 0.1875q0.6875 0 1.046875 -0.21875q0.234375 -0.140625 0.359375 -0.4375q0.078125 -0.234375 0.078125 -0.828125l0 -0.984375q-0.796875 1.09375 -2.015625 1.09375q-1.359375 0 -2.15625 -1.15625q-0.625 -0.90625 -0.625 -2.25q0 -1.703125 0.8125 -2.59375q0.828125 -0.890625 2.03125 -0.890625q1.25 0 2.0625 1.09375l0 -0.9375l1.671875 0l0 6.046875q0 1.1875 -0.203125 1.78125q-0.1875 0.59375 -0.546875 0.921875q-0.359375 0.34375 -0.953125 0.53125q-0.59375 0.1875 -1.5 0.1875q-1.703125 0 -2.421875 -0.59375q-0.71875 -0.578125 -0.71875 -1.484375q0 -0.078125 0 -0.21875zm1.59375 -3.953125q0 1.078125 0.40625 1.578125q0.421875 0.5 1.03125 0.5q0.65625 0 1.109375 -0.515625q0.453125 -0.515625 0.453125 -1.515625q0 -1.046875 -0.4375 -1.546875q-0.421875 -0.515625 -1.09375 -0.515625q-0.640625 0 -1.0625 0.5q-0.40625 0.5 -0.40625 1.515625zm10.625732 1.375l1.765625 0.296875q-0.34375 0.96875 -1.078125 1.484375q-0.734375 0.515625 -1.84375 0.515625q-1.765625 0 -2.609375 -1.15625q-0.671875 -0.921875 -0.671875 -2.3125q0 -1.6875 0.875 -2.625q0.890625 -0.953125 2.21875 -0.953125q1.515625 0 2.375 1.0q0.875 0.984375 0.828125 3.03125l-4.46875 0q0.03125 0.796875 0.4375 1.234375q0.40625 0.4375 1.03125 0.4375q0.421875 0 0.703125 -0.21875q0.28125 -0.234375 0.4375 -0.734375zm0.09375 -1.8125q-0.015625 -0.765625 -0.40625 -1.171875q-0.375 -0.40625 -0.921875 -0.40625q-0.578125 0 -0.96875 0.421875q-0.375 0.4375 -0.375 1.15625l2.671875 0zm9.537476 3.953125l-1.78125 0l0 -3.4375q0 -1.09375 -0.125 -1.40625q-0.109375 -0.328125 -0.375 -0.5q-0.25 -0.1875 -0.609375 -0.1875q-0.453125 0 -0.828125 0.265625q-0.359375 0.25 -0.5 0.671875q-0.140625 0.40625 -0.140625 1.546875l0 3.046875l-1.78125 0l0 -6.734375l1.65625 0l0 0.984375q0.875 -1.140625 2.21875 -1.140625q0.59375 0 1.078125 0.21875q0.484375 0.203125 0.734375 0.53125q0.265625 0.328125 0.359375 0.75q0.09375 0.421875 0.09375 1.203125l0 4.1875zm5.1101074 -6.734375l0 1.421875l-1.21875 0l0 2.703125q0 0.828125 0.03125 0.96875q0.03125 0.140625 0.15625 0.234375q0.125 0.078125 0.296875 0.078125q0.25 0 0.71875 -0.171875l0.15625 1.390625q-0.625 0.265625 -1.40625 0.265625q-0.484375 0 -0.875 -0.15625q-0.390625 -0.171875 -0.578125 -0.421875q-0.171875 -0.265625 -0.234375 -0.703125q-0.0625 -0.3125 -0.0625 -1.25l0 -2.9375l-0.8125 0l0 -1.421875l0.8125 0l0 -1.34375l1.796875 -1.046875l0 2.390625l1.21875 0z" fill-rule="nonzero"></path><path stroke="#000000" stroke-width="1.3997395038604736" stroke-linecap="butt" d="m765.4992 539.03064l39.984375 0" fill-rule="nonzero"></path><path fill="#f3f3f3" d="m748.0 568.77954l74.99213 0l0 49.039368l-74.99213 0z" fill-rule="nonzero"></path><path stroke="#000000" stroke-width="2.0" stroke-linejoin="round" stroke-linecap="butt" d="m748.0 568.77954l74.99213 0l0 49.039368l-74.99213 0z" fill-rule="nonzero"></path><path fill="#000000" d="m770.1671 594.83356l1.234375 0.3125q-0.390625 1.515625 -1.40625 2.3125q-1.0 0.796875 -2.453125 0.796875q-1.5 0 -2.453125 -0.609375q-0.9375 -0.609375 -1.4375 -1.765625q-0.484375 -1.171875 -0.484375 -2.5q0 -1.453125 0.5625 -2.53125q0.5625 -1.09375 1.578125 -1.65625q1.03125 -0.5625 2.265625 -0.5625q1.390625 0 2.34375 0.71875q0.953125 0.703125 1.328125 2.0l-1.21875 0.28125q-0.328125 -1.015625 -0.9375 -1.46875q-0.609375 -0.46875 -1.546875 -0.46875q-1.078125 0 -1.796875 0.515625q-0.71875 0.515625 -1.015625 1.375q-0.28125 0.859375 -0.28125 1.78125q0 1.1875 0.34375 2.078125q0.34375 0.890625 1.0625 1.328125q0.734375 0.4375 1.59375 0.4375q1.03125 0 1.75 -0.59375q0.71875 -0.609375 0.96875 -1.78125zm7.234558 2.4375q-0.625 0.53125 -1.21875 0.765625q-0.578125 0.21875 -1.25 0.21875q-1.125 0 -1.71875 -0.546875q-0.59375 -0.546875 -0.59375 -1.390625q0 -0.484375 0.21875 -0.890625q0.234375 -0.421875 0.59375 -0.671875q0.375 -0.25 0.828125 -0.375q0.328125 -0.078125 1.015625 -0.171875q1.375 -0.15625 2.03125 -0.390625q0.015625 -0.234375 0.015625 -0.296875q0 -0.703125 -0.328125 -0.984375q-0.4375 -0.390625 -1.296875 -0.390625q-0.8125 0 -1.203125 0.28125q-0.375 0.28125 -0.5625 1.0l-1.109375 -0.140625q0.140625 -0.71875 0.484375 -1.15625q0.359375 -0.453125 1.015625 -0.6875q0.671875 -0.234375 1.53125 -0.234375q0.875 0 1.40625 0.203125q0.546875 0.203125 0.796875 0.515625q0.25 0.296875 0.359375 0.765625q0.046875 0.296875 0.046875 1.0625l0 1.515625q0 1.59375 0.078125 2.015625q0.078125 0.421875 0.28125 0.8125l-1.1875 0q-0.171875 -0.359375 -0.234375 -0.828125zm-0.09375 -2.5625q-0.625 0.265625 -1.859375 0.4375q-0.703125 0.109375 -1.0 0.234375q-0.296875 0.125 -0.453125 0.375q-0.15625 0.234375 -0.15625 0.53125q0 0.453125 0.34375 0.765625q0.34375 0.296875 1.015625 0.296875q0.65625 0 1.171875 -0.28125q0.515625 -0.296875 0.765625 -0.796875q0.171875 -0.375 0.171875 -1.140625l0 -0.421875zm5.6156006 2.375l0.15625 1.0q-0.484375 0.109375 -0.859375 0.109375q-0.625 0 -0.96875 -0.203125q-0.34375 -0.203125 -0.484375 -0.515625q-0.140625 -0.328125 -0.140625 -1.34375l0 -3.890625l-0.828125 0l0 -0.875l0.828125 0l0 -1.671875l1.140625 -0.6875l0 2.359375l1.15625 0l0 0.875l-1.15625 0l0 3.953125q0 0.484375 0.0625 0.625q0.0625 0.140625 0.1875 0.21875q0.140625 0.078125 0.390625 0.078125q0.203125 0 0.515625 -0.03125zm5.593567 0.1875q-0.625 0.53125 -1.21875 0.765625q-0.578125 0.21875 -1.25 0.21875q-1.125 0 -1.71875 -0.546875q-0.59375 -0.546875 -0.59375 -1.390625q0 -0.484375 0.21875 -0.890625q0.234375 -0.421875 0.59375 -0.671875q0.375 -0.25 0.828125 -0.375q0.328125 -0.078125 1.015625 -0.171875q1.375 -0.15625 2.03125 -0.390625q0.015625 -0.234375 0.015625 -0.296875q0 -0.703125 -0.328125 -0.984375q-0.4375 -0.390625 -1.296875 -0.390625q-0.8125 0 -1.203125 0.28125q-0.375 0.28125 -0.5625 1.0l-1.109375 -0.140625q0.140625 -0.71875 0.484375 -1.15625q0.359375 -0.453125 1.015625 -0.6875q0.671875 -0.234375 1.53125 -0.234375q0.875 0 1.40625 0.203125q0.546875 0.203125 0.796875 0.515625q0.25 0.296875 0.359375 0.765625q0.046875 0.296875 0.046875 1.0625l0 1.515625q0 1.59375 0.078125 2.015625q0.078125 0.421875 0.28125 0.8125l-1.1875 0q-0.171875 -0.359375 -0.234375 -0.828125zm-0.09375 -2.5625q-0.625 0.265625 -1.859375 0.4375q-0.703125 0.109375 -1.0 0.234375q-0.296875 0.125 -0.453125 0.375q-0.15625 0.234375 -0.15625 0.53125q0 0.453125 0.34375 0.765625q0.34375 0.296875 1.015625 0.296875q0.65625 0 1.171875 -0.28125q0.515625 -0.296875 0.765625 -0.796875q0.171875 -0.375 0.171875 -1.140625l0 -0.421875zm3.0843506 3.390625l0 -9.3125l1.140625 0l0 9.3125l-1.140625 0zm2.5704956 -3.375q0 -1.875 1.03125 -2.765625q0.875 -0.75 2.125 -0.75q1.390625 0 2.265625 0.90625q0.890625 0.90625 0.890625 2.515625q0 1.296875 -0.390625 2.046875q-0.390625 0.75 -1.140625 1.171875q-0.75 0.40625 -1.625 0.40625q-1.421875 0 -2.296875 -0.90625q-0.859375 -0.90625 -0.859375 -2.625zm1.171875 0q0 1.296875 0.5625 1.953125q0.5625 0.640625 1.421875 0.640625q0.84375 0 1.40625 -0.640625q0.578125 -0.65625 0.578125 -1.984375q0 -1.25 -0.578125 -1.890625q-0.5625 -0.65625 -1.40625 -0.65625q-0.859375 0 -1.421875 0.640625q-0.5625 0.640625 -0.5625 1.9375zm6.4437256 3.9375l1.125 0.15625q0.0625 0.515625 0.375 0.75q0.4375 0.328125 1.171875 0.328125q0.78125 0 1.21875 -0.328125q0.4375 -0.3125 0.578125 -0.890625q0.09375 -0.34375 0.09375 -1.453125q-0.75 0.875 -1.875 0.875q-1.390625 0 -2.15625 -1.0q-0.75 -1.0 -0.75 -2.40625q0 -0.96875 0.34375 -1.78125q0.359375 -0.8125 1.015625 -1.25q0.65625 -0.453125 1.5625 -0.453125q1.1875 0 1.96875 0.96875l0 -0.8125l1.046875 0l0 5.8125q0 1.578125 -0.328125 2.234375q-0.3125 0.65625 -1.015625 1.03125q-0.6875 0.390625 -1.703125 0.390625q-1.203125 0 -1.953125 -0.546875q-0.734375 -0.53125 -0.71875 -1.625zm0.953125 -4.046875q0 1.3125 0.515625 1.921875q0.53125 0.609375 1.328125 0.609375q0.796875 0 1.328125 -0.59375q0.53125 -0.609375 0.53125 -1.90625q0 -1.234375 -0.546875 -1.859375q-0.546875 -0.640625 -1.328125 -0.640625q-0.765625 0 -1.296875 0.625q-0.53125 0.625 -0.53125 1.84375z" fill-rule="nonzero"></path><path fill="#f3f3f3" d="m860.0 508.57974l118.40454 0l0 157.42813l-118.40454 0z" fill-rule="nonzero"></path><path fill="#c2c2c2" d="m978.40454 508.57974l4.5875854 -4.587616l0 157.42816l-4.5875854 4.5875854z" fill-rule="nonzero"></path><path fill="#f5f5f5" d="m860.0 508.57974l4.5875854 -4.587616l118.40454 0l-4.5875854 4.587616z" fill-rule="nonzero"></path><path fill="#000000" fill-opacity="0.0" d="m860.0 508.57974l4.5875854 -4.587616l118.40454 0l0 157.42816l-4.5875854 4.5875854l-118.40454 0zm0 0l118.40454 0l4.5875854 -4.587616m-4.5875854 4.587616l0 157.42813" fill-rule="nonzero"></path><path stroke="#000000" stroke-width="2.0" stroke-linejoin="round" stroke-linecap="butt" d="m860.0 508.57974l4.5875854 -4.587616l118.40454 0l0 157.42816l-4.5875854 4.5875854l-118.40454 0zm0 0l118.40454 0l4.5875854 -4.587616m-4.5875854 4.587616l0 157.42813" fill-rule="nonzero"></path><path fill="#000000" fill-opacity="0.0" d="m872.42706 515.8179l98.14172 0l0 41.13385l-98.14172 0z" fill-rule="nonzero"></path><path fill="#000000" d="m885.38495 532.66473l0 -1.78125l1.78125 0l0 1.78125l-1.78125 0zm0 4.953125l0 -1.78125l1.78125 0l0 1.78125l-1.78125 0zm5.4227295 -4.6875l-1.625 -0.296875q0.28125 -0.96875 0.9375 -1.4375q0.671875 -0.46875 1.984375 -0.46875q1.203125 0 1.78125 0.28125q0.578125 0.28125 0.8125 0.71875q0.25 0.4375 0.25 1.59375l-0.015625 2.078125q0 0.890625 0.078125 1.3125q0.09375 0.421875 0.328125 0.90625l-1.765625 0q-0.078125 -0.171875 -0.171875 -0.53125q-0.046875 -0.15625 -0.0625 -0.203125q-0.46875 0.4375 -0.984375 0.671875q-0.515625 0.21875 -1.109375 0.21875q-1.046875 0 -1.640625 -0.5625q-0.59375 -0.578125 -0.59375 -1.4375q0 -0.5625 0.265625 -1.015625q0.28125 -0.453125 0.765625 -0.6875q0.5 -0.234375 1.421875 -0.421875q1.25 -0.234375 1.734375 -0.4375l0 -0.171875q0 -0.515625 -0.265625 -0.734375q-0.25 -0.21875 -0.953125 -0.21875q-0.46875 0 -0.734375 0.1875q-0.265625 0.1875 -0.4375 0.65625zm2.390625 1.453125q-0.34375 0.109375 -1.09375 0.265625q-0.734375 0.15625 -0.96875 0.3125q-0.34375 0.25 -0.34375 0.625q0 0.375 0.28125 0.65625q0.28125 0.265625 0.703125 0.265625q0.484375 0 0.921875 -0.3125q0.328125 -0.234375 0.421875 -0.59375q0.078125 -0.21875 0.078125 -0.859375l0 -0.359375zm3.6312256 -3.5l1.671875 0l0 0.984375q0.328125 -0.515625 0.875 -0.828125q0.546875 -0.3125 1.21875 -0.3125q1.1875 0 2.0 0.921875q0.8125 0.921875 0.8125 2.5625q0 1.6875 -0.828125 2.625q-0.8125 0.9375 -1.984375 0.9375q-0.5625 0 -1.015625 -0.21875q-0.453125 -0.234375 -0.953125 -0.765625l0 3.390625l-1.796875 0l0 -9.296875zm1.765625 3.25q0 1.140625 0.453125 1.6875q0.453125 0.53125 1.109375 0.53125q0.609375 0 1.015625 -0.5q0.421875 -0.5 0.421875 -1.625q0 -1.0625 -0.421875 -1.578125q-0.421875 -0.515625 -1.046875 -0.515625q-0.65625 0 -1.09375 0.515625q-0.4375 0.5 -0.4375 1.484375zm6.3757324 -3.25l1.671875 0l0 0.984375q0.328125 -0.515625 0.875 -0.828125q0.546875 -0.3125 1.21875 -0.3125q1.1875 0 2.0 0.921875q0.8125 0.921875 0.8125 2.5625q0 1.6875 -0.828125 2.625q-0.8125 0.9375 -1.984375 0.9375q-0.5625 0 -1.015625 -0.21875q-0.453125 -0.234375 -0.953125 -0.765625l0 3.390625l-1.796875 0l0 -9.296875zm1.765625 3.25q0 1.140625 0.453125 1.6875q0.453125 0.53125 1.109375 0.53125q0.609375 0 1.015625 -0.5q0.421875 -0.5 0.421875 -1.625q0 -1.0625 -0.421875 -1.578125q-0.421875 -0.515625 -1.046875 -0.515625q-0.65625 0 -1.09375 0.515625q-0.4375 0.5 -0.4375 1.484375zm6.4382324 3.484375l0 -9.3125l1.78125 0l0 9.3125l-1.78125 0zm3.703003 -7.65625l0 -1.65625l1.78125 0l0 1.65625l-1.78125 0zm0 7.65625l0 -6.734375l1.78125 0l0 6.734375l-1.78125 0zm9.577942 -4.75l-1.765625 0.3125q-0.078125 -0.515625 -0.40625 -0.78125q-0.3125 -0.265625 -0.8125 -0.265625q-0.65625 0 -1.0625 0.453125q-0.390625 0.453125 -0.390625 1.546875q0 1.1875 0.40625 1.6875q0.40625 0.5 1.078125 0.5q0.515625 0 0.828125 -0.28125q0.328125 -0.296875 0.453125 -1.0l1.765625 0.296875q-0.28125 1.203125 -1.0625 1.828125q-0.765625 0.609375 -2.0625 0.609375q-1.484375 0 -2.359375 -0.9375q-0.875 -0.9375 -0.875 -2.578125q0 -1.671875 0.875 -2.59375q0.875 -0.9375 2.390625 -0.9375q1.234375 0 1.953125 0.53125q0.734375 0.53125 1.046875 1.609375zm2.8656006 0.0625l-1.625 -0.296875q0.28125 -0.96875 0.9375 -1.4375q0.671875 -0.46875 1.984375 -0.46875q1.203125 0 1.78125 0.28125q0.578125 0.28125 0.8125 0.71875q0.25 0.4375 0.25 1.59375l-0.015625 2.078125q0 0.890625 0.078125 1.3125q0.09375 0.421875 0.328125 0.90625l-1.765625 0q-0.078125 -0.171875 -0.171875 -0.53125q-0.046875 -0.15625 -0.0625 -0.203125q-0.46875 0.4375 -0.984375 0.671875q-0.515625 0.21875 -1.109375 0.21875q-1.046875 0 -1.640625 -0.5625q-0.59375 -0.578125 -0.59375 -1.4375q0 -0.5625 0.265625 -1.015625q0.28125 -0.453125 0.765625 -0.6875q0.5 -0.234375 1.421875 -0.421875q1.25 -0.234375 1.734375 -0.4375l0 -0.171875q0 -0.515625 -0.265625 -0.734375q-0.25 -0.21875 -0.953125 -0.21875q-0.46875 0 -0.734375 0.1875q-0.265625 0.1875 -0.4375 0.65625zm2.390625 1.453125q-0.34375 0.109375 -1.09375 0.265625q-0.734375 0.15625 -0.96875 0.3125q-0.34375 0.25 -0.34375 0.625q0 0.375 0.28125 0.65625q0.28125 0.265625 0.703125 0.265625q0.484375 0 0.921875 -0.3125q0.328125 -0.234375 0.421875 -0.59375q0.078125 -0.21875 0.078125 -0.859375l0 -0.359375zm6.7874756 -3.5l0 1.421875l-1.21875 0l0 2.703125q0 0.828125 0.03125 0.96875q0.03125 0.140625 0.15625 0.234375q0.125 0.078125 0.296875 0.078125q0.25 0 0.71875 -0.171875l0.15625 1.390625q-0.625 0.265625 -1.40625 0.265625q-0.484375 0 -0.875 -0.15625q-0.390625 -0.171875 -0.578125 -0.421875q-0.171875 -0.265625 -0.234375 -0.703125q-0.0625 -0.3125 -0.0625 -1.25l0 -2.9375l-0.8125 0l0 -1.421875l0.8125 0l0 -1.34375l1.796875 -1.046875l0 2.390625l1.21875 0zm1.3446655 -0.921875l0 -1.65625l1.78125 0l0 1.65625l-1.78125 0zm0 7.65625l0 -6.734375l1.78125 0l0 6.734375l-1.78125 0zm3.281067 -3.46875q0 -0.890625 0.4375 -1.71875q0.4375 -0.828125 1.234375 -1.265625q0.8125 -0.4375 1.8125 -0.4375q1.515625 0 2.5 1.0q0.984375 0.984375 0.984375 2.5q0 1.53125 -1.0 2.546875q-0.984375 1.0 -2.484375 1.0q-0.921875 0 -1.765625 -0.421875q-0.84375 -0.421875 -1.28125 -1.21875q-0.4375 -0.8125 -0.4375 -1.984375zm1.828125 0.09375q0 1.0 0.46875 1.546875q0.484375 0.53125 1.1875 0.53125q0.703125 0 1.171875 -0.53125q0.46875 -0.546875 0.46875 -1.5625q0 -0.984375 -0.46875 -1.515625q-0.46875 -0.53125 -1.171875 -0.53125q-0.703125 0 -1.1875 0.53125q-0.46875 0.53125 -0.46875 1.53125zm12.860107 3.375l-1.78125 0l0 -3.4375q0 -1.09375 -0.125 -1.40625q-0.109375 -0.328125 -0.375 -0.5q-0.25 -0.1875 -0.609375 -0.1875q-0.453125 0 -0.828125 0.265625q-0.359375 0.25 -0.5 0.671875q-0.140625 0.40625 -0.140625 1.546875l0 3.046875l-1.78125 0l0 -6.734375l1.65625 0l0 0.984375q0.875 -1.140625 2.21875 -1.140625q0.59375 0 1.078125 0.21875q0.484375 0.203125 0.734375 0.53125q0.265625 0.328125 0.359375 0.75q0.09375 0.421875 0.09375 1.203125l0 4.1875z" fill-rule="nonzero"></path><path stroke="#000000" stroke-width="1.3997395038604736" stroke-linecap="butt" d="m884.1037 539.03064l74.78851 0" fill-rule="nonzero"></path><path fill="#000000" d="m894.40576 551.696l1.78125 -0.28125q0.109375 0.53125 0.453125 0.796875q0.359375 0.265625 0.984375 0.265625q0.703125 0 1.046875 -0.25q0.234375 -0.171875 0.234375 -0.46875q0 -0.203125 -0.125 -0.34375q-0.140625 -0.125 -0.59375 -0.234375q-2.15625 -0.46875 -2.734375 -0.875q-0.8125 -0.546875 -0.8125 -1.515625q0 -0.875 0.6875 -1.46875q0.703125 -0.59375 2.15625 -0.59375q1.390625 0 2.0625 0.453125q0.671875 0.4375 0.921875 1.328125l-1.6875 0.3125q-0.109375 -0.390625 -0.40625 -0.59375q-0.296875 -0.21875 -0.859375 -0.21875q-0.703125 0 -1.015625 0.1875q-0.203125 0.140625 -0.203125 0.375q0 0.1875 0.1875 0.3125q0.234375 0.1875 1.65625 0.515625q1.4375 0.3125 2.0 0.78125q0.5625 0.484375 0.5625 1.328125q0 0.921875 -0.78125 1.59375q-0.78125 0.671875 -2.296875 0.671875q-1.375 0 -2.1875 -0.5625q-0.796875 -0.5625 -1.03125 -1.515625zm7.6156006 -1.546875q0 -0.890625 0.4375 -1.71875q0.4375 -0.828125 1.234375 -1.265625q0.8125 -0.4375 1.8125 -0.4375q1.515625 0 2.5 1.0q0.984375 0.984375 0.984375 2.5q0 1.53125 -1.0 2.546875q-0.984375 1.0 -2.484375 1.0q-0.921875 0 -1.765625 -0.421875q-0.84375 -0.421875 -1.28125 -1.21875q-0.4375 -0.8125 -0.4375 -1.984375zm1.828125 0.09375q0 1.0 0.46875 1.546875q0.484375 0.53125 1.1875 0.53125q0.703125 0 1.171875 -0.53125q0.46875 -0.546875 0.46875 -1.5625q0 -0.984375 -0.46875 -1.515625q-0.46875 -0.53125 -1.171875 -0.53125q-0.703125 0 -1.1875 0.53125q-0.46875 0.53125 -0.46875 1.53125zm5.9538574 -3.359375l0.984375 0l0 -0.515625q0 -0.84375 0.171875 -1.265625q0.1875 -0.421875 0.671875 -0.6875q0.484375 -0.265625 1.234375 -0.265625q0.765625 0 1.484375 0.234375l-0.234375 1.25q-0.421875 -0.109375 -0.8125 -0.109375q-0.390625 0 -0.5625 0.1875q-0.171875 0.171875 -0.171875 0.6875l0 0.484375l1.34375 0l0 1.390625l-1.34375 0l0 5.34375l-1.78125 0l0 -5.34375l-0.984375 0l0 -1.390625zm8.3133545 0l0 1.421875l-1.21875 0l0 2.703125q0 0.828125 0.03125 0.96875q0.03125 0.140625 0.15625 0.234375q0.125 0.078125 0.296875 0.078125q0.25 0 0.71875 -0.171875l0.15625 1.390625q-0.625 0.265625 -1.40625 0.265625q-0.484375 0 -0.875 -0.15625q-0.390625 -0.171875 -0.578125 -0.421875q-0.171875 -0.265625 -0.234375 -0.703125q-0.0625 -0.3125 -0.0625 -1.25l0 -2.9375l-0.8125 0l0 -1.421875l0.8125 0l0 -1.34375l1.796875 -1.046875l0 2.390625l1.21875 0zm2.5946655 6.734375l-2.125 -6.734375l1.734375 0l1.25 4.40625l1.171875 -4.40625l1.71875 0l1.125 4.40625l1.28125 -4.40625l1.765625 0l-2.171875 6.734375l-1.703125 0l-1.171875 -4.328125l-1.140625 4.328125l-1.734375 0zm10.445129 -4.6875l-1.625 -0.296875q0.28125 -0.96875 0.9375 -1.4375q0.671875 -0.46875 1.984375 -0.46875q1.203125 0 1.78125 0.28125q0.578125 0.28125 0.8125 0.71875q0.25 0.4375 0.25 1.59375l-0.015625 2.078125q0 0.890625 0.078125 1.3125q0.09375 0.421875 0.328125 0.90625l-1.765625 0q-0.078125 -0.171875 -0.171875 -0.53125q-0.046875 -0.15625 -0.0625 -0.203125q-0.46875 0.4375 -0.984375 0.671875q-0.515625 0.21875 -1.109375 0.21875q-1.046875 0 -1.640625 -0.5625q-0.59375 -0.578125 -0.59375 -1.4375q0 -0.5625 0.265625 -1.015625q0.28125 -0.453125 0.765625 -0.6875q0.5 -0.234375 1.421875 -0.421875q1.25 -0.234375 1.734375 -0.4375l0 -0.171875q0 -0.515625 -0.265625 -0.734375q-0.25 -0.21875 -0.953125 -0.21875q-0.46875 0 -0.734375 0.1875q-0.265625 0.1875 -0.4375 0.65625zm2.390625 1.453125q-0.34375 0.109375 -1.09375 0.265625q-0.734375 0.15625 -0.96875 0.3125q-0.34375 0.25 -0.34375 0.625q0 0.375 0.28125 0.65625q0.28125 0.265625 0.703125 0.265625q0.484375 0 0.921875 -0.3125q0.328125 -0.234375 0.421875 -0.59375q0.078125 -0.21875 0.078125 -0.859375l0 -0.359375zm5.3968506 3.234375l-1.78125 0l0 -6.734375l1.65625 0l0 0.953125q0.421875 -0.6875 0.765625 -0.890625q0.34375 -0.21875 0.765625 -0.21875q0.609375 0 1.171875 0.328125l-0.546875 1.5625q-0.453125 -0.296875 -0.84375 -0.296875q-0.375 0 -0.640625 0.21875q-0.25 0.203125 -0.40625 0.75q-0.140625 0.53125 -0.140625 2.25l0 2.078125zm7.3899536 -2.140625l1.765625 0.296875q-0.34375 0.96875 -1.078125 1.484375q-0.734375 0.515625 -1.84375 0.515625q-1.765625 0 -2.609375 -1.15625q-0.671875 -0.921875 -0.671875 -2.3125q0 -1.6875 0.875 -2.625q0.890625 -0.953125 2.21875 -0.953125q1.515625 0 2.375 1.0q0.875 0.984375 0.828125 3.03125l-4.46875 0q0.03125 0.796875 0.4375 1.234375q0.40625 0.4375 1.03125 0.4375q0.421875 0 0.703125 -0.21875q0.28125 -0.234375 0.4375 -0.734375zm0.09375 -1.8125q-0.015625 -0.765625 -0.40625 -1.171875q-0.375 -0.40625 -0.921875 -0.40625q-0.578125 0 -0.96875 0.421875q-0.375 0.4375 -0.375 1.15625l2.671875 0z" fill-rule="nonzero"></path><path stroke="#000000" stroke-width="1.3997395038604736" stroke-linecap="butt" d="m894.09326 555.03064l54.809387 0" fill-rule="nonzero"></path><path fill="#000000" fill-opacity="0.0" d="m536.49786 317.0l-313.0036 100.0" fill-rule="nonzero"></path><path stroke="#000000" stroke-width="2.0" stroke-linejoin="round" stroke-linecap="butt" d="m536.49786 317.0l-313.0036 100.0" fill-rule="nonzero"></path><path fill="#000000" fill-opacity="0.0" d="m536.49786 317.0l325.9964 100.0" fill-rule="nonzero"></path><path stroke="#000000" stroke-width="2.0" stroke-linejoin="round" stroke-linecap="butt" d="m536.49786 317.0l325.9964 100.0" fill-rule="nonzero"></path><path fill="#000000" d="m502.49738 553.04724l0 0c0 -2.2091064 2.0164795 -4.0 4.503937 -4.0l0 0c2.4874573 0 4.503937 1.7908936 4.503937 4.0l0 0c0 2.2091675 -2.0164795 4.0 -4.503937 4.0l0 0c-2.4874573 0 -4.503937 -1.7908325 -4.503937 -4.0z" fill-rule="nonzero"></path><path stroke="#000000" stroke-width="2.0" stroke-linejoin="round" stroke-linecap="butt" d="m502.49738 553.04724l0 0c0 -2.2091064 2.0164795 -4.0 4.503937 -4.0l0 0c2.4874573 0 4.503937 1.7908936 4.503937 4.0l0 0c0 2.2091675 -2.0164795 4.0 -4.503937 4.0l0 0c-2.4874573 0 -4.503937 -1.7908325 -4.503937 -4.0z" fill-rule="nonzero"></path><path fill="#000000" d="m524.7782 553.04724l0 0c0 -2.2091064 2.0164795 -4.0 4.5039673 -4.0l0 0c2.4874268 0 4.5039062 1.7908936 4.5039062 4.0l0 0c0 2.2091675 -2.0164795 4.0 -4.5039062 4.0l0 0c-2.4874878 0 -4.5039673 -1.7908325 -4.5039673 -4.0z" fill-rule="nonzero"></path><path stroke="#000000" stroke-width="2.0" stroke-linejoin="round" stroke-linecap="butt" d="m524.7782 553.04724l0 0c0 -2.2091064 2.0164795 -4.0 4.5039673 -4.0l0 0c2.4874268 0 4.5039062 1.7908936 4.5039062 4.0l0 0c0 2.2091675 -2.0164795 4.0 -4.5039062 4.0l0 0c-2.4874878 0 -4.5039673 -1.7908325 -4.5039673 -4.0z" fill-rule="nonzero"></path><path fill="#000000" d="m544.48553 553.04724l0 0c0 -2.2091064 2.0165405 -4.0 4.5039673 -4.0l0 0c2.4874268 0 4.5039062 1.7908936 4.5039062 4.0l0 0c0 2.2091675 -2.0164795 4.0 -4.5039062 4.0l0 0c-2.4874268 0 -4.5039673 -1.7908325 -4.5039673 -4.0z" fill-rule="nonzero"></path><path stroke="#000000" stroke-width="2.0" stroke-linejoin="round" stroke-linecap="butt" d="m544.48553 553.04724l0 0c0 -2.2091064 2.0165405 -4.0 4.5039673 -4.0l0 0c2.4874268 0 4.5039062 1.7908936 4.5039062 4.0l0 0c0 2.2091675 -2.0164795 4.0 -4.5039062 4.0l0 0c-2.4874268 0 -4.5039673 -1.7908325 -4.5039673 -4.0z" fill-rule="nonzero"></path><path fill="#000000" fill-opacity="0.0" d="m536.49786 317.0l-5.51178 205.00787" fill-rule="nonzero"></path><path stroke="#000000" stroke-width="2.0" stroke-linejoin="round" stroke-linecap="butt" d="m536.49786 317.0l-5.51178 205.00787" fill-rule="nonzero"></path><path fill="#000000" fill-opacity="0.0" d="m255.99213 339.0l117.00787 0l0 25.984253l-117.00787 0z" fill-rule="nonzero"></path><path fill="#000000" d="m271.8756 356.7375l0 -1.078125l6.15625 -2.59375l0 1.125l-4.890625 2.015625l4.890625 2.015625l0 1.140625l-6.15625 -2.625zm7.7834167 0l0 -1.078125l6.15625 -2.59375l0 1.125l-4.890625 2.015625l4.890625 2.015625l0 1.140625l-6.15625 -2.625zm7.1271667 4.0625l3.59375 -4.84375l-3.171875 -4.46875l1.46875 0l1.6875 2.390625q0.53125 0.75 0.75 1.140625q0.3125 -0.5 0.734375 -1.0625l1.875 -2.46875l1.328125 0l-3.265625 4.390625l3.53125 4.921875l-1.53125 0l-2.34375 -3.3125q-0.1875 -0.296875 -0.40625 -0.625q-0.3125 0.5 -0.4375 0.6875l-2.34375 3.25l-1.46875 0zm9.7960205 0l0 -9.3125l1.84375 0l2.203125 6.59375q0.3125 0.921875 0.453125 1.375q0.15625 -0.5 0.484375 -1.484375l2.234375 -6.484375l1.65625 0l0 9.3125l-1.1875 0l0 -7.78125l-2.703125 7.78125l-1.109375 0l-2.6875 -7.921875l0 7.921875l-1.1875 0zm11.086792 0l0 -9.3125l1.234375 0l0 8.21875l4.578125 0l0 1.09375l-5.8125 0zm7.4749756 0l0 -9.3125l4.125 0q1.25 0 1.890625 0.265625q0.65625 0.25 1.046875 0.890625q0.390625 0.625 0.390625 1.390625q0 0.984375 -0.65625 1.671875q-0.640625 0.671875 -1.96875 0.859375q0.484375 0.234375 0.734375 0.46875q0.546875 0.484375 1.03125 1.234375l1.609375 2.53125l-1.546875 0l-1.234375 -1.9375q-0.53125 -0.84375 -0.890625 -1.28125q-0.34375 -0.4375 -0.625 -0.609375q-0.265625 -0.1875 -0.546875 -0.265625q-0.21875 -0.03125 -0.6875 -0.03125l-1.4375 0l0 4.125l-1.234375 0zm1.234375 -5.203125l2.65625 0q0.84375 0 1.3125 -0.171875q0.484375 -0.171875 0.71875 -0.546875q0.25 -0.390625 0.25 -0.84375q0 -0.65625 -0.484375 -1.078125q-0.46875 -0.4375 -1.5 -0.4375l-2.953125 0l0 3.078125zm8.375153 5.203125l0 -9.3125l3.515625 0q0.921875 0 1.40625 0.09375q0.6875 0.109375 1.15625 0.4375q0.46875 0.3125 0.75 0.890625q0.28125 0.578125 0.28125 1.28125q0 1.1875 -0.765625 2.015625q-0.75 0.8125 -2.71875 0.8125l-2.390625 0l0 3.78125l-1.234375 0zm1.234375 -4.875l2.40625 0q1.1875 0 1.6875 -0.4375q0.515625 -0.453125 0.515625 -1.265625q0 -0.578125 -0.296875 -0.984375q-0.296875 -0.421875 -0.78125 -0.5625q-0.3125 -0.078125 -1.15625 -0.078125l-2.375 0l0 3.328125zm14.29599 1.609375l1.234375 0.3125q-0.390625 1.515625 -1.40625 2.3125q-1.0 0.796875 -2.453125 0.796875q-1.5 0 -2.453125 -0.609375q-0.9375 -0.609375 -1.4375 -1.765625q-0.484375 -1.171875 -0.484375 -2.5q0 -1.453125 0.5625 -2.53125q0.5625 -1.09375 1.578125 -1.65625q1.03125 -0.5625 2.265625 -0.5625q1.390625 0 2.34375 0.71875q0.953125 0.703125 1.328125 2.0l-1.21875 0.28125q-0.328125 -1.015625 -0.9375 -1.46875q-0.609375 -0.46875 -1.546875 -0.46875q-1.078125 0 -1.796875 0.515625q-0.71875 0.515625 -1.015625 1.375q-0.28125 0.859375 -0.28125 1.78125q0 1.1875 0.34375 2.078125q0.34375 0.890625 1.0625 1.328125q0.734375 0.4375 1.59375 0.4375q1.03125 0 1.75 -0.59375q0.71875 -0.609375 0.96875 -1.78125zm8.859528 -0.796875l-6.15625 2.625l0 -1.140625l4.875 -2.015625l-4.875 -2.015625l0 -1.125l6.15625 2.59375l0 1.078125zm7.7834167 0l-6.15625 2.625l0 -1.140625l4.875 -2.015625l-4.875 -2.015625l0 -1.125l6.15625 2.59375l0 1.078125z" fill-rule="nonzero"></path><path fill="#000000" fill-opacity="0.0" d="m673.49603 339.0l117.00787 0l0 25.984253l-117.00787 0z" fill-rule="nonzero"></path><path fill="#000000" d="m689.3796 356.7375l0 -1.078125l6.15625 -2.59375l0 1.125l-4.890625 2.015625l4.890625 2.015625l0 1.140625l-6.15625 -2.625zm7.783386 0l0 -1.078125l6.15625 -2.59375l0 1.125l-4.890625 2.015625l4.890625 2.015625l0 1.140625l-6.15625 -2.625zm7.1271973 4.0625l3.59375 -4.84375l-3.171875 -4.46875l1.46875 0l1.6875 2.390625q0.53125 0.75 0.75 1.140625q0.3125 -0.5 0.734375 -1.0625l1.875 -2.46875l1.328125 0l-3.265625 4.390625l3.53125 4.921875l-1.53125 0l-2.34375 -3.3125q-0.1875 -0.296875 -0.40625 -0.625q-0.3125 0.5 -0.4375 0.6875l-2.34375 3.25l-1.46875 0zm9.795959 0l0 -9.3125l1.84375 0l2.203125 6.59375q0.3125 0.921875 0.453125 1.375q0.15625 -0.5 0.484375 -1.484375l2.234375 -6.484375l1.65625 0l0 9.3125l-1.1875 0l0 -7.78125l-2.703125 7.78125l-1.109375 0l-2.6875 -7.921875l0 7.921875l-1.1875 0zm11.086853 0l0 -9.3125l1.234375 0l0 8.21875l4.578125 0l0 1.09375l-5.8125 0zm7.4749756 0l0 -9.3125l4.125 0q1.249939 0 1.890564 0.265625q0.65625 0.25 1.046875 0.890625q0.390625 0.625 0.390625 1.390625q0 0.984375 -0.65625 1.671875q-0.640625 0.671875 -1.968689 0.859375q0.48431396 0.234375 0.73431396 0.46875q0.546875 0.484375 1.03125 1.234375l1.609375 2.53125l-1.546875 0l-1.234375 -1.9375q-0.53125 -0.84375 -0.89056396 -1.28125q-0.34375 -0.4375 -0.625 -0.609375q-0.265625 -0.1875 -0.546875 -0.265625q-0.21875 -0.03125 -0.6875 -0.03125l-1.4375 0l0 4.125l-1.234375 0zm1.234375 -5.203125l2.65625 0q0.84375 0 1.312439 -0.171875q0.484375 -0.171875 0.71875 -0.546875q0.25 -0.390625 0.25 -0.84375q0 -0.65625 -0.484375 -1.078125q-0.46875 -0.4375 -1.499939 -0.4375l-2.953125 0l0 3.078125zm8.375122 5.203125l0 -9.3125l3.515625 0q0.921875 0 1.40625 0.09375q0.6875 0.109375 1.15625 0.4375q0.46875 0.3125 0.75 0.890625q0.28125 0.578125 0.28125 1.28125q0 1.1875 -0.765625 2.015625q-0.75 0.8125 -2.71875 0.8125l-2.390625 0l0 3.78125l-1.234375 0zm1.234375 -4.875l2.40625 0q1.1875 0 1.6875 -0.4375q0.515625 -0.453125 0.515625 -1.265625q0 -0.578125 -0.296875 -0.984375q-0.296875 -0.421875 -0.78125 -0.5625q-0.3125 -0.078125 -1.15625 -0.078125l-2.375 0l0 3.328125zm14.2960205 1.609375l1.234375 0.3125q-0.390625 1.515625 -1.40625 2.3125q-1.0 0.796875 -2.453125 0.796875q-1.5 0 -2.453125 -0.609375q-0.9375 -0.609375 -1.4375 -1.765625q-0.484375 -1.171875 -0.484375 -2.5q0 -1.453125 0.5625 -2.53125q0.5625 -1.09375 1.578125 -1.65625q1.03125 -0.5625 2.265625 -0.5625q1.390625 0 2.34375 0.71875q0.953125 0.703125 1.328125 2.0l-1.21875 0.28125q-0.328125 -1.015625 -0.9375 -1.46875q-0.609375 -0.46875 -1.546875 -0.46875q-1.078125 0 -1.796875 0.515625q-0.71875 0.515625 -1.015625 1.375q-0.28125 0.859375 -0.28125 1.78125q0 1.1875 0.34375 2.078125q0.34375 0.890625 1.0625 1.328125q0.734375 0.4375 1.59375 0.4375q1.03125 0 1.75 -0.59375q0.71875 -0.609375 0.96875 -1.78125zm8.859497 -0.796875l-6.15625 2.625l0 -1.140625l4.875 -2.015625l-4.875 -2.015625l0 -1.125l6.15625 2.59375l0 1.078125zm7.7834473 0l-6.15625 2.625l0 -1.140625l4.875 -2.015625l-4.875 -2.015625l0 -1.125l6.15625 2.59375l0 1.078125z" fill-rule="nonzero"></path><path fill="#000000" fill-opacity="0.0" d="m423.0 406.5118l117.00787 0l0 25.984253l-117.00787 0z" fill-rule="nonzero"></path><path fill="#000000" d="m438.88348 424.2493l0 -1.078125l6.15625 -2.59375l0 1.125l-4.890625 2.015625l4.890625 2.015625l0 1.140625l-6.15625 -2.625zm7.7834167 0l0 -1.078125l6.15625 -2.59375l0 1.125l-4.890625 2.015625l4.890625 2.015625l0 1.140625l-6.15625 -2.625zm7.1271667 4.0625l3.59375 -4.84375l-3.171875 -4.46875l1.46875 0l1.6875 2.390625q0.53125 0.75 0.75 1.140625q0.3125 -0.5 0.734375 -1.0625l1.875 -2.46875l1.328125 0l-3.265625 4.390625l3.53125 4.921875l-1.53125 0l-2.34375 -3.3125q-0.1875 -0.296875 -0.40625 -0.625q-0.3125 0.5 -0.4375 0.6875l-2.34375 3.25l-1.46875 0zm9.7960205 0l0 -9.3125l1.84375 0l2.203125 6.59375q0.3125 0.921875 0.453125 1.375q0.15625 -0.5 0.484375 -1.484375l2.234375 -6.484375l1.65625 0l0 9.3125l-1.1875 0l0 -7.78125l-2.703125 7.78125l-1.109375 0l-2.6875 -7.921875l0 7.921875l-1.1875 0zm11.086792 0l0 -9.3125l1.234375 0l0 8.21875l4.578125 0l0 1.09375l-5.8125 0zm7.4749756 0l0 -9.3125l4.125 0q1.25 0 1.890625 0.265625q0.65625 0.25 1.046875 0.890625q0.390625 0.625 0.390625 1.390625q0 0.984375 -0.65625 1.671875q-0.640625 0.671875 -1.96875 0.859375q0.484375 0.234375 0.734375 0.46875q0.546875 0.484375 1.03125 1.234375l1.609375 2.53125l-1.546875 0l-1.234375 -1.9375q-0.53125 -0.84375 -0.890625 -1.28125q-0.34375 -0.4375 -0.625 -0.609375q-0.265625 -0.1875 -0.546875 -0.265625q-0.21875 -0.03125 -0.6875 -0.03125l-1.4375 0l0 4.125l-1.234375 0zm1.234375 -5.203125l2.65625 0q0.84375 0 1.3125 -0.171875q0.484375 -0.171875 0.71875 -0.546875q0.25 -0.390625 0.25 -0.84375q0 -0.65625 -0.484375 -1.078125q-0.46875 -0.4375 -1.5 -0.4375l-2.953125 0l0 3.078125zm8.375153 5.203125l0 -9.3125l3.515625 0q0.921875 0 1.40625 0.09375q0.6875 0.109375 1.15625 0.4375q0.46875 0.3125 0.75 0.890625q0.28125 0.578125 0.28125 1.28125q0 1.1875 -0.765625 2.015625q-0.75 0.8125 -2.71875 0.8125l-2.390625 0l0 3.78125l-1.234375 0zm1.234375 -4.875l2.40625 0q1.1875 0 1.6875 -0.4375q0.515625 -0.453125 0.515625 -1.265625q0 -0.578125 -0.296875 -0.984375q-0.296875 -0.421875 -0.78125 -0.5625q-0.3125 -0.078125 -1.15625 -0.078125l-2.375 0l0 3.328125zm14.29599 1.609375l1.234375 0.3125q-0.390625 1.515625 -1.40625 2.3125q-1.0 0.796875 -2.453125 0.796875q-1.5 0 -2.453125 -0.609375q-0.9375 -0.609375 -1.4375 -1.765625q-0.484375 -1.171875 -0.484375 -2.5q0 -1.453125 0.5625 -2.53125q0.5625 -1.09375 1.578125 -1.65625q1.03125 -0.5625 2.265625 -0.5625q1.390625 0 2.34375 0.71875q0.953125 0.703125 1.328125 2.0l-1.21875 0.28125q-0.328125 -1.015625 -0.9375 -1.46875q-0.609375 -0.46875 -1.546875 -0.46875q-1.078125 0 -1.796875 0.515625q-0.71875 0.515625 -1.015625 1.375q-0.28125 0.859375 -0.28125 1.78125q0 1.1875 0.34375 2.078125q0.34375 0.890625 1.0625 1.328125q0.734375 0.4375 1.59375 0.4375q1.03125 0 1.75 -0.59375q0.71875 -0.609375 0.96875 -1.78125zm8.859558 -0.796875l-6.15625 2.625l0 -1.140625l4.875 -2.015625l-4.875 -2.015625l0 -1.125l6.15625 2.59375l0 1.078125zm7.783386 0l-6.15625 2.625l0 -1.140625l4.875 -2.015625l-4.875 -2.015625l0 -1.125l6.15625 2.59375l0 1.078125z" fill-rule="nonzero"></path></g></svg>

